<svg xmlns="http://www.w3.org/2000/svg" width="40" height="40" fill="none"><path fill="#C9434C" stroke="#C9434C" d="M3.18 10.289 20 .577l16.82 9.712V29.71L20 39.423 3.18 29.71V10.29Z"/><path fill="#fff" d="m20.36 17.552 2.664-4.104h3.048l-4.128 5.928a70.734 70.734 0 0 1 2.472 3.408c.8 1.136 1.456 2.208 1.968 3.216H23.24a10.336 10.336 0 0 0-.576-1.032c-.224-.4-.472-.808-.744-1.224a21.407 21.407 0 0 0-.816-1.272 46.761 46.761 0 0 0-.84-1.176c-.56.72-1.112 1.52-1.656 2.4A40.84 40.84 0 0 0 17.288 26h-2.976c.24-.48.528-.992.864-1.536.336-.544.696-1.096 1.08-1.656.384-.576.776-1.144 1.176-1.704.416-.576.824-1.12 1.224-1.632l-4.152-6.024h3.192l2.664 4.104Z"/></svg>