<svg width="51" height="33" fill="none" xmlns="http://www.w3.org/2000/svg"><g clip-path="url(#a)"><path fill="#fff" d="M.5.082h49.99v33.203H.5z"/><path d="M.598 13.548c7.096 0 14.192-.005 21.288.01.444 0 .55-.11.55-.552-.019-4.125 0-8.25-.025-12.376-.003-.529.157-.626.643-.618 1.72.028 3.442.023 5.163.002.37-.004.454.098.453.459-.013 4.142-.01 8.283-.01 12.424 0 .432.21.649.626.649 6.885 0 13.77.003 20.655-.01.431 0 .566.089.558.545-.03 1.737-.026 3.475-.002 5.213.007.407-.097.502-.502.5-6.933-.014-13.868-.005-20.802-.022-.457 0-.544.13-.543.559.016 4.157.004 8.316.02 12.474.001.397-.086.518-.5.511a181.955 181.955 0 0 0-5.26 0c-.425.007-.497-.129-.494-.518.014-4.174.003-8.349.02-12.522 0-.404-.094-.503-.5-.503-7.113.015-14.225.01-21.338.01v-6.238.003Z" fill="#D8222C"/><path d="M.598 0c2.301 1.29 4.6 2.583 6.906 3.867 4.033 2.246 8.07 4.485 12.104 6.728.121.068.276.096.371.292-1.494 0-2.962-.024-4.426.01a3.273 3.273 0 0 1-1.745-.447C9.5 8.035 5.178 5.643.86 3.245.775 3.198.685 3.16.598 3.12V0ZM.598 30.215c3.003-1.662 6.008-3.322 9.01-4.985 1.56-.863 3.116-1.73 4.67-2.6.218-.12.433-.194.69-.192 1.655.009 3.31.005 4.973.005.008.183-.157.196-.255.251-6.242 3.474-12.488 6.943-18.734 10.41-.108.06-.206.17-.353.133v-3.02l-.001-.002Z" fill="#D8222C"/><path d="M.598 4.484c3.78 2.1 7.56 4.197 11.341 6.296l-.034.104h-.465l-10.262.001c-.192 0-.386.021-.579.032V4.484H.598ZM.598 22.418l5.886.024c.91.002 1.818 0 2.73 0 .033.164-.114.175-.196.222a3783.061 3783.061 0 0 1-8.153 4.529c-.082.045-.178.065-.267.097v-4.873.001ZM47.847.121 31.064 9.447c-.13-.121-.082-.258-.084-.374-.003-2.858.003-5.716-.009-8.574 0-.335.045-.483.44-.482 5.391.014 10.78.01 16.172.013.079 0 .19-.066.264.091ZM20.108 23.843v1.436c0 2.532-.003 5.065.004 7.597 0 .278-.016.44-.382.44-5.484-.013-10.969-.009-16.498-.096l16.876-9.377ZM45.1 33.309H31.384c-.217 0-.411.03-.41-.306.012-2.5.008-4.998.012-7.497 0-.024.03-.05.071-.115l14.074 7.82a2.8 2.8 0 0 1-.032.096l.001.002ZM20.108 7.98 5.848.057C6.11.042 6.24.027 6.37.027c4.4 0 8.798.004 13.197-.009.405 0 .557.065.552.52-.026 2.321-.012 4.643-.012 6.965v.478Z" fill="#2558A8"/><path d="M31.151 22.44c1.655 0 3.31.003 4.965-.003.235 0 .44.047.647.162 4.47 2.488 8.944 4.974 13.42 7.453.226.125.318.26.312.527-.021.875-.008 1.752-.008 2.72L31.111 22.535l.039-.093h.001ZM50.488.038c0 .999-.017 1.892.01 2.782.008.306-.182.38-.376.489L39.591 9.16c-.92.512-1.84 1.024-2.76 1.533-.155.086-.303.19-.494.19-1.714 0-3.429 0-5.18-.102L50.487.038Z" fill="#D8222C"/><path d="M39.185 22.443h3.348c2.5 0 5.002.008 7.502-.008.36-.003.466.082.463.454-.02 1.961-.01 3.922-.01 5.96l-11.337-6.3.035-.106h-.001ZM41.836 10.803l8.651-4.807c0 1.599-.004 3.117.003 4.634 0 .373-.263.258-.443.258-2.723.005-5.447.004-8.17.004a2.726 2.726 0 0 0-.04-.09v.001Z" fill="#2558A8"/></g><defs><clipPath id="a"><path fill="#fff" transform="translate(.5)" d="M0 0h50v33H0z"/></clipPath></defs></svg>