<svg width="41" height="40" fill="none" xmlns="http://www.w3.org/2000/svg"><g clip-path="url(#a)"><ellipse cx="20.482" cy="19.98" rx="19.983" ry="19.98" fill="#fff"/><path d="M.578 21.712v-3.268c.151-.346.126-.72.178-1.082.693-4.71 2.74-8.73 6.262-11.931 4.603-4.182 10.05-5.878 16.21-5.078 4.704.61 8.736 2.69 11.898 6.228 5.088 5.694 6.662 12.34 4.298 19.583-2.516 7.706-8.048 12.208-16.052 13.63-.436.077-.89.047-1.313.206h-3.192c-.033-.102-.123-.074-.194-.08a20.653 20.653 0 0 1-2.491-.39A19.938 19.938 0 0 1 .788 22.984c-.063-.425-.038-.865-.21-1.273ZM19.925 7.498c-5.915.054-12.028 5.004-12.106 12.443-.075 7.193 6.152 13.053 13.312 12.565 7.324-.5 11.738-6.724 11.704-11.933-2.59 4.155-6.254 5.985-11.15 4.832-3.67-.864-6.478-4.147-7.007-7.987-.523-3.785 1.28-7.848 5.248-9.92h-.001Zm12.997 4.19-.007-.062c-1.094-.117-2.188-.236-3.283-.351-.292-.03-.53-.056-.523-.473.008-.45-.085-.901-.137-1.352-.074-.64-.15-1.28-.227-1.92-.184 1.033-.29 2.064-.412 3.092-.074.62-.088.605-.705.667-1.038.103-2.074.226-3.14.344.164.1.32.099.473.116.825.087 1.65.164 2.473.27.868.113.852.126.935.993.092.963.213 1.924.32 2.885.183-1.174.322-2.343.44-3.516.02-.212.091-.292.296-.31.542-.049 1.083-.109 1.624-.168.625-.07 1.25-.144 1.874-.216ZM6.712 31.76l.007.066c.733.08 1.464.177 2.199.23.33.024.435.153.459.47.055.714.15 1.423.228 2.135.15-.683.262-1.362.294-2.044.02-.417.161-.547.57-.57.68-.035 1.357-.143 2.034-.221a15.568 15.568 0 0 0-2.127-.299c-.323-.022-.444-.123-.467-.457-.05-.72-.15-1.436-.229-2.154-.153.73-.245 1.46-.306 2.191-.024.288-.13.394-.423.416-.748.059-1.491.155-2.237.236l-.002.001Zm27.407-16.165c-.006-.067-.49-.517-.548-.51-.067.008-.526.482-.52.538.007.058.499.523.552.52.061-.004.521-.49.516-.546v-.002ZM19.904 20.41c.06.003.541-.47.541-.53 0-.05-.504-.57-.53-.546a11.54 11.54 0 0 0-.548.543c-.026.027.482.531.536.533h.001Zm8.027 12.406c-.054.002-.537.493-.534.545.003.048.517.561.541.538.186-.179.367-.363.541-.552.023-.024-.502-.533-.547-.532ZM10.67 8.192c.004-.057-.454-.54-.521-.547-.06-.007-.534.447-.54.516-.007.055.448.545.51.55.055.005.545-.458.55-.519ZM36.54 22.686c-.002-.064-.485-.524-.545-.52-.063.006-.534.481-.529.535.004.052.5.532.55.53.054-.001.526-.492.524-.546v.001ZM7.431 10.248c0-.067-.471-.528-.537-.525-.064.003-.536.473-.532.53.003.052.494.537.544.537.057 0 .525-.484.525-.541Z" fill="#29546C"/><path d="M19.925 7.498c-3.968 2.071-5.77 6.134-5.248 9.92.53 3.84 3.337 7.123 7.007 7.988 4.897 1.152 8.56-.678 11.15-4.833.034 5.209-4.38 11.433-11.704 11.933-7.159.488-13.387-5.372-13.312-12.566.078-7.438 6.191-12.39 12.106-12.442Z" fill="#FBD47E"/></g><defs><clipPath id="a"><path fill="#fff" transform="translate(.5)" d="M0 0h40v40H0z"/></clipPath></defs></svg>