<svg width="40" height="40" fill="none" xmlns="http://www.w3.org/2000/svg"><path d="M18.288.078h3.19c.298.147.63.103.943.139C26.56.68 30.28 2.159 33.46 4.872c3.308 2.823 5.445 6.35 6.189 10.677.064.377.032.771.196 1.13v2.494c-.112.067-.077.184-.089.28-.684 5.528-4.665 8.723-9.545 9.243-1.577.17-3.158.137-4.74.139-.428 0-.853.007-1.278.078-1.847.307-3.159 2.134-2.784 3.895.155.731.583 1.318 1.005 1.914 1.495 2.108.378 4.794-2.17 5.184-1.467.225-2.927.013-4.363-.278C7.46 37.926 1.097 30.962.143 22.425c-.472-4.221.212-8.248 2.267-11.97C5.574 4.728 10.413 1.332 16.884.292c.468-.075.95-.051 1.405-.214h-.002Zm-6.542 8.31c-.007 1.944 1.56 3.529 3.493 3.53 1.913 0 3.494-1.57 3.507-3.486.013-1.92-1.554-3.514-3.462-3.524-1.958-.009-3.53 1.537-3.537 3.48Zm9.34-.016c-.012 1.949 1.545 3.538 3.477 3.546 1.914.008 3.5-1.556 3.521-3.471.02-1.92-1.543-3.525-3.446-3.539-1.961-.013-3.541 1.527-3.553 3.464ZM9.4 21.276a3.491 3.491 0 0 0-3.49 3.526 3.51 3.51 0 0 0 3.501 3.483c1.912-.003 3.491-1.58 3.498-3.495a3.508 3.508 0 0 0-3.51-3.515Zm-4.658-5.857c-.002 1.926 1.555 3.502 3.47 3.514a3.525 3.525 0 0 0 3.529-3.503c.005-1.918-1.566-3.502-3.479-3.507a3.49 3.49 0 0 0-3.52 3.496Zm23.346-.04c-.014 1.951 1.538 3.542 3.47 3.554a3.524 3.524 0 0 0 3.529-3.502c.005-1.902-1.553-3.492-3.44-3.508-1.96-.017-3.545 1.521-3.56 3.455l.001.001Z" fill="#7BBBFE"/></svg>
