<svg width="41" height="40" fill="none" xmlns="http://www.w3.org/2000/svg"><path d="M32.858 20.034c.003 6.756-5.49 12.248-12.247 12.245-6.755-.003-12.244-5.503-12.235-12.257.01-6.744 5.485-12.218 12.228-12.225 6.76-.006 12.251 5.476 12.254 12.236v.001ZM20.952 9.747h-.195c-.427.003-.696.223-.685.562.01.32.273.529.679.529.273 0 .54.041.81.065a8.723 8.723 0 0 1 5.026 2.144c2.087 1.81 3.15 4.13 3.23 6.896.01.374.22.632.529.641.327.01.561-.253.561-.646a9.754 9.754 0 0 0-.492-3.051 10.237 10.237 0 0 0-3.233-4.759c-1.81-1.511-3.898-2.257-6.231-2.382h.001Z" fill="#FDDB43"/><path d="M7.96 6.266c1.086-.005 2.145.134 3.117.668.08.044.158.089.236.137.32.202.729.429.806.754.091.385-.439.477-.694.688-1.024.85-1.951 1.787-2.72 2.874-.155.22-.245.26-.46.056-.827-.784-1.175-1.782-1.34-2.866-.097-.63-.098-1.265-.063-1.902.015-.29.14-.415.42-.41.234.004.467 0 .7 0H7.96ZM8.094 33.84c-1.397-.059-1.238.118-1.268-1.124-.023-.967.127-1.91.52-2.807a3.91 3.91 0 0 1 .945-1.316c.144-.134.23-.159.357.022a14.122 14.122 0 0 0 3.396 3.393c.184.132.148.216.017.359-.795.876-1.834 1.23-2.962 1.388-.384.054-.772.106-1.005.086ZM34.419 32.557c-.058 1.407.127 1.241-1.15 1.272-.926.023-1.835-.12-2.695-.487a5.39 5.39 0 0 1-.718-.384c-.299-.185-.679-.406-.741-.709-.076-.368.42-.464.668-.667 1.04-.852 1.974-1.8 2.75-2.898.159-.225.255-.248.463-.05.833.796 1.181 1.808 1.337 2.908.056.384.104.772.086 1.015ZM34.392 7.408c.007.94-.115 1.86-.493 2.731-.215.494-.52.92-.903 1.3-.202.202-.302.182-.463-.045a13.92 13.92 0 0 0-3-3.082c-.587-.442-.592-.45-.02-.934.948-.802 2.093-1.044 3.288-1.123.374-.025.752.007 1.128.005.307-.002.485.11.466.45-.013.232-.002.466-.002.7l-.001-.002ZM35.356 20.19c-.01-.94-.062-1.717-.207-2.483-.051-.271.028-.32.282-.332 1.009-.045 1.88.322 2.693.865a8.27 8.27 0 0 1 1.746 1.599c.079.094.197.175.067.327-1.015 1.184-2.157 2.183-3.746 2.498-1.024.202-1.1.12-.948-.886.013-.09.025-.18.03-.27.03-.492.103-.983.083-1.318ZM20.601 5.3c-.78.007-1.557.058-2.323.207-.233.046-.312.009-.325-.252-.053-1.024.318-1.906.869-2.731a8.272 8.272 0 0 1 1.6-1.745c.099-.082.18-.184.327-.057 1.132.97 2.085 2.061 2.453 3.558.082.333.066.669.074 1.006.006.218-.069.259-.275.222a13.74 13.74 0 0 0-2.4-.208ZM5.519 22.695c-.751.004-1.422-.267-2.055-.636-.817-.475-1.504-1.105-2.108-1.828-.084-.1-.177-.181-.052-.328 1-1.162 2.123-2.134 3.674-2.477.307-.068.62-.04.931-.045.186-.003.215.076.186.239a13.76 13.76 0 0 0 0 4.84c.029.163-.003.247-.187.236-.129-.009-.259-.002-.39-.002ZM23.28 35.127c-.012.832-.326 1.565-.76 2.255-.46.733-1.043 1.356-1.703 1.91-.096.08-.177.194-.329.065-1.12-.962-2.07-2.04-2.447-3.519-.026-.1-.05-.202-.064-.304-.132-.973-.084-1.013.865-.879 1.293.183 2.587.139 3.88-.034.562-.075.563-.065.557.506ZM20.952 9.747c2.333.124 4.42.87 6.231 2.382a10.23 10.23 0 0 1 3.233 4.758c.323.988.492 2.008.492 3.052 0 .392-.234.656-.561.646-.31-.009-.519-.267-.53-.641-.079-2.766-1.142-5.085-3.229-6.896a8.723 8.723 0 0 0-5.026-2.144c-.27-.025-.538-.066-.81-.066-.406 0-.67-.208-.68-.528-.008-.34.26-.559.686-.562h.195l-.001-.001Z" fill="#FAA837"/></svg>