<svg width="51" height="38" fill="none" xmlns="http://www.w3.org/2000/svg"><g clip-path="url(#a)"><rect x=".5" y=".218" width="50" height="32" rx="5" fill="#fff"/><path d="M50.484 6.903c.005 1.2.015 2.4.015 3.6v14.742c0 .194-.01.389-.015.584-16.401 0-32.803-.001-49.204-.003-.227 0-.454-.003-.682-.006V6.91c.227 0 .454-.004.682-.004l49.205-.003ZM22.525 18.782l.006-1.53c.321.018.471-.073.473-.454 0-.388-.16-.467-.477-.448 0-.453-.008-.906.007-1.357.008-.247-.065-.352-.328-.338-.354.02-.71.017-1.064.002-.25-.01-.351.077-.343.333.015.452.009.905.011 1.358l-1.268.015c-.01-.499-.021-1-.027-1.498-.011-.773-.279-1.059-1.046-1.059-1.082 0-2.163.016-3.245.026-1.13-.008-2.262-.027-3.392-.017-.59.005-.88.318-.901.907-.005.145-.001.29-.001.436 0 .843-.43 1.24-1.29 1.19.018-1.153-.44-1.707-1.376-1.664-.016 0-.033.002-.05 0-.229-.026-.314.075-.308.306.012.452.005.905.005 1.358-.327-.026-.426.116-.424.448.003.324.087.48.42.455l.007 1.53c-.087.036-.183.062-.262.113-.297.194-.155.498-.13.736.03.277.256-.013.38.058.003.178.006.356.006.534 0 1.338 0 1.33 1.35 1.307.29-.004.402-.074.391-.38-.022-.681-.01-1.363-.013-2.044.088-.039.182-.067.262-.117.308-.193.158-.502.13-.738-.029-.265-.253-.009-.384-.05l-.002-.949c.29-.006.582.001.871-.023.302-.026.47.058.415.394-.056.347.104.475.435.422.342-.053.432.09.432.429.002 1.212-.057 2.424.032 3.635.054.14.154.15.276.099l-.004-.002c.005.294.27.33.45.426 1.261.667 2.607.715 3.974.473.752-.133 1.484-.352 2.007-.977.658-.62 1.076-1.331.99-2.287-.052-.575-.014-1.16-.016-1.74l.037-.869 1.265.02v.948c-.305-.12-.428-.067-.438.31-.008.363.144.51.442.597-.002.373-.008.746-.008 1.119 0 1.37 0 1.362 1.402 1.306.256-.011.336-.087.33-.337-.014-.502 0-1.005.002-1.508.336.12.468.052.465-.352-.002-.374-.213-.462-.477-.556l.001.004Zm-3.926-6.61c.844-.651.579-1.912-.426-2.161-.536-.133-.984-.228-1.351-.674-.247-.296-.684-.42-1.018-.207-.277.177-.099.56-.106.858.66-.117.78-.03.772.532a4.755 4.755 0 0 0-2.498.001c-.009-.567.117-.65.852-.516-.113-.309.173-.71-.182-.892-.368-.19-.758-.015-1.076.245a.991.991 0 0 0-.252.287c-.127.244-.294.317-.579.295a1.287 1.287 0 0 0-1.301.817c-.202.505-.056.996.42 1.42.107.097.235.18.32.295.299.408.69.504 1.182.487 1.036-.035 2.077-.057 3.11.004.853.05 1.596-.053 2.132-.79h.001ZM8.75 23.258c.485 0 .97-.012 1.455.005.291.01.322-.157.296-.37-.024-.195.123-.49-.271-.488-.97.003-1.94.006-2.909-.002-.356-.002-.261.25-.271.441-.011.21-.044.43.295.419.468-.017.938-.004 1.407-.004l-.002-.001Zm12.908 0c.471 0 .944-.017 1.413.006.363.018.328-.206.33-.44.004-.241.017-.44-.338-.432-.925.022-1.852.026-2.777.007-.356-.008-.34.187-.342.43 0 .248.003.452.35.435.454-.02.909-.005 1.364-.005v-.001ZM8.753 13.82c.579 0 .778-.203.75-.81-.02-.454-.345-.527-.717-.528-.509-.002-.756.17-.758.54-.002.602.175.798.725.798Zm12.909 0c.585 0 .733-.152.75-.78.01-.376-.234-.56-.743-.557-.523.002-.711.154-.708.575.005.626.129.762.701.763v-.001Z" fill="#FBC950"/><path d="M50.484 6.903 1.28 6.906c-.227 0-.454.003-.683.004V.575C.91.116 1.351 0 1.89 0c15.772.009 31.543.007 47.315.007 1.04 0 1.296.255 1.295 1.293-.004 1.868-.01 3.735-.016 5.603h.001ZM.598 25.82c.227.002.454.005.682.005 16.401 0 32.803.001 49.204.003.005 1.98.017 3.962.012 5.943 0 .56-.305.872-.853.94-.144.019-.292.01-.438.01-15.772 0-31.542-.001-47.313.007-.539 0-.98-.116-1.293-.575v-6.335l-.001.001ZM7.907 17.252c-.333.025-.417-.13-.42-.455-.002-.33.095-.474.424-.448h1.727c.86.05 1.29-.346 1.29-1.19 0-.146-.003-.29.002-.436.022-.588.31-.903.9-.907 1.13-.009 2.262.01 3.393.017 0 .877.001 1.752-.004 2.628-.001.224 0 .379.302.438.46.09.783.423.89.872.073.3.21.334.465.332.876-.01 1.751 0 2.628 0 .002.58-.036 1.163.017 1.74.087.957-.333 1.666-.991 2.286-.44.073-.845.301-1.314.248-1.11-.126-1.7-.812-2.007-1.818 0-.292.005-.583.002-.874-.002-.123.028-.255-.153-.309-.225-.067-.44-.165-.688-.26v2.81c-.254.227-.542.379-.89.392-.003-1.278-.011-2.556-.005-3.833.001-.278-.02-.45-.379-.45-.348 0-.433.12-.43.45.014 1.278 0 2.556-.002 3.833l-.565-.11.004.003c-.053-.144-.182-.072-.277-.1-.09-1.21-.03-2.424-.032-3.634 0-.338-.09-.483-.432-.429-.33.053-.491-.076-.435-.422.054-.336-.113-.419-.415-.395-.29.025-.58.016-.871.024H7.906l.001-.003Zm5.138-.024c.308 0 .615.003.922-.001.155-.003.378.036.357-.2-.02-.222.212-.557-.183-.648-.28-.063-.209-.256-.2-.411.011-.18-.12-.415.219-.497.344-.083.141-.404.17-.615.033-.245-.173-.222-.333-.222-.598-.001-1.197-.005-1.795.002-.162.003-.413-.072-.386.215.02.217-.196.544.207.635.275.06.181.274.177.428-.003.155.113.39-.147.447-.448.1-.216.44-.226.665-.014.319.276.183.44.197.258.02.518.006.777.005h.001Zm5.59 2.688c0-.657-.3-.985-.904-.985h-.34c-.924 0-1.354.465-1.29 1.396.067.95 1.145 1.494 1.948.983.559-.355.64-.897.588-1.394h-.001ZM13.972 10.52a4.754 4.754 0 0 1 2.498-.001l.983.461.67.513c.111.259.502.322.475.679-.536.737-1.28.84-2.133.79-1.032-.062-2.073-.04-3.109-.004-.492.017-.883-.08-1.182-.487-.085-.115-.213-.198-.32-.296-.03-.354.357-.423.467-.682l.668-.512.983-.46v-.001Zm-.03 1.53c-.057-.225-.178-.398-.456-.386-.248.01-.398.156-.402.399-.003.244.143.392.39.408.275.017.415-.14.468-.42v-.002Zm3.006-.389c-.28.004-.429.17-.422.425.007.23.156.392.41.385.27-.008.428-.154.42-.426-.01-.246-.157-.379-.408-.385v.001Zm-1.725.815c.248-.026.395-.142.4-.396.006-.276-.135-.417-.409-.415-.246.003-.393.127-.394.382-.002.271.148.407.404.43l-.001-.001ZM19.542 17.234v-.87l1.268-.015 1.718.002c.317-.02.477.06.476.448-.002.381-.152.473-.473.454-.575 0-1.148 0-1.723.002l-1.266-.02v-.001ZM8.75 23.254c-.468 0-.937-.012-1.406.004-.339.012-.306-.209-.295-.419.01-.191-.085-.443.271-.44.97.007 1.94.005 2.909 0 .394 0 .247.295.27.49.028.213-.003.379-.295.37-.484-.017-.969-.006-1.455-.006l.002.001ZM21.658 23.254c-.455 0-.91-.016-1.364.005-.347.016-.35-.188-.35-.434 0-.242-.014-.438.342-.431.926.02 1.852.016 2.777-.006.357-.009.342.19.338.432-.003.234.034.458-.33.44-.47-.024-.943-.007-1.413-.007v.001ZM20.805 18.202l1.72.58c.264.092.475.181.477.555.003.404-.129.473-.465.353a13.646 13.646 0 0 0-1.726-.58c-.298-.088-.45-.234-.442-.597.01-.377.132-.428.437-.31v-.001Z" fill="#C9434C"/><path d="m7.915 18.782 1.73-.581c.13.041.354-.214.384.05.027.237.177.547-.13.738-.081.05-.175.08-.263.117-.59.16-1.17.347-1.734.582-.124-.072-.35.218-.38-.058-.025-.238-.167-.543.13-.736.078-.051.175-.076.263-.113ZM8.754 13.817c-.549 0-.726-.195-.725-.798.001-.369.248-.541.758-.54.373 0 .697.075.718.529.028.605-.17.81-.75.81ZM21.663 13.817c-.571 0-.695-.135-.7-.763-.004-.42.184-.572.708-.575.507-.002.752.18.742.558-.017.628-.165.78-.75.779v.001Z" fill="#C9434C"/><path d="M13.045 17.228c-.259 0-.519.016-.776-.006-.165-.014-.456.122-.44-.197.009-.223-.223-.565.225-.665.26-.057.144-.292.148-.447.003-.154.097-.367-.177-.428-.403-.09-.187-.416-.208-.635-.027-.286.225-.212.386-.215.598-.007 1.197-.004 1.796-.002.16 0 .367-.022.333.222-.03.211.174.532-.171.615-.338.082-.209.316-.219.497-.01.155-.079.347.2.411.395.09.164.426.184.647.02.237-.204.2-.358.2-.308.005-.615.002-.922.002ZM18.636 19.917c.054.497-.03 1.038-.588 1.394-.804.512-1.882-.033-1.947-.983-.065-.93.365-1.396 1.289-1.396h.34c.604 0 .905.328.905.985Zm-1.283-.134c-.221-.021-.427-.014-.407.333.019.287.082.527.415.536.36.01.446-.263.47-.552.031-.353-.225-.322-.478-.317ZM13.48 22.317a1.12 1.12 0 0 1-.815 0c.003-1.278.016-2.556.002-3.833-.004-.33.083-.448.43-.45.358 0 .38.172.378.45-.006 1.278.001 2.556.005 3.833ZM15.21 20.56c-.124.55-.352 1.037-.84 1.365v-2.809c.249.095.465.193.69.26.18.054.15.186.152.31.004.29 0 .581-.001.873ZM13.942 12.05c-.052.28-.193.437-.467.42-.248-.015-.394-.164-.39-.408.003-.243.152-.388.4-.4.28-.012.401.162.457.386v.002ZM16.948 11.661c.251.007.399.14.407.385.009.27-.149.419-.418.426-.255.006-.404-.154-.41-.385-.008-.255.141-.42.42-.424v-.002ZM15.223 12.476c-.257-.024-.405-.16-.404-.43.002-.255.147-.38.394-.382.274-.003.415.139.409.415-.005.254-.153.371-.4.395v.002ZM12.321 11.493c-.143-.211-.168-.43.045-.597.219-.171.444-.153.623.084l-.668.512ZM17.453 10.98c.18-.234.408-.256.626-.085.214.167.19.387.044.598l-.67-.513Z" fill="#FBC950"/><path d="M17.354 19.782c.253-.004.51-.035.479.317-.025.29-.11.561-.47.552-.332-.009-.397-.25-.415-.536-.022-.347.185-.354.406-.333Z" fill="#C9434C"/></g><defs><clipPath id="a"><path fill="#fff" transform="translate(.5)" d="M0 0h50v38H0z"/></clipPath></defs></svg>