<svg width="16" height="16" fill="none" xmlns="http://www.w3.org/2000/svg"><g clip-path="url(#a)" fill="#FEFEFE"><path d="M1.95 12.194c.059-.225.052-.459.085-.688.125-.854.322-1.681.794-2.421.502-.788 1.212-1.223 2.144-1.317.308-.03.56.05.812.21.364.232.713.489 1.119.655 1.094.45 2.13.323 3.126-.283.191-.117.386-.23.563-.366.314-.24.66-.25 1.028-.192 1.04.167 1.718.785 2.17 1.701.305.62.454 1.281.554 1.958.079.53.1 1.066.09 1.602-.02 1.292-.916 2.275-2.203 2.418-.028.003-.06-.003-.078.028H4.172c-.059-.051-.135-.042-.203-.056-.977-.205-1.636-.762-1.923-1.733-.039-.133-.037-.276-.096-.404V12.194Z"/><path d="M8.218.528a3.599 3.599 0 0 1 3.604 3.603 3.605 3.605 0 0 1-3.615 3.612 3.6 3.6 0 0 1-3.6-3.622A3.591 3.591 0 0 1 8.217.528Z"/></g><defs><clipPath id="a"><path fill="#fff" transform="translate(.7 .469)" d="M0 0h15v15.029H0z"/></clipPath></defs></svg>