<svg width="40" height="40" fill="none" xmlns="http://www.w3.org/2000/svg"><ellipse cx="20.573" cy="20.104" rx="15.781" ry="14.688" fill="#fff"/><path d="M2.69 29.958c-.312-.502-.413-1.065-.413-1.638-.006-5.521-.01-11.042.002-16.563.003-1.292.566-2.298 1.703-2.954 4.732-2.73 9.466-5.456 14.196-8.19.417-.24.878-.353 1.315-.535h1.091c2.197.818 4.096 2.19 6.123 3.323 3.032 1.693 6.023 3.457 9.034 5.189.645.371 1.264.768 1.613 1.466-.203.114-.406.226-.608.343-1.702.98-3.4 1.969-5.109 2.936-.456.259-.863.622-1.407.709-.067-.094-.138-.185-.202-.282-2.115-3.23-5.09-5.114-8.932-5.463-3.59-.326-6.753.79-9.321 3.346-2.873 2.858-3.954 6.343-3.366 10.348.208 1.415.732 2.72 1.41 3.97-.164.009-.292.106-.424.182-1.615.927-3.223 1.867-4.843 2.784-.617.35-1.196.77-1.862 1.028v.001Z" fill="#B24996"/><path d="M2.69 29.958c.666-.258 1.245-.679 1.862-1.028 1.62-.918 3.228-1.857 4.843-2.784.132-.076.26-.173.424-.182.07.108.143.215.212.325C13.55 31.914 21 33.535 26.538 29.887c1.545-1.02 2.76-2.35 3.723-3.921.245.055.45.192.66.316.715.417 1.431.83 2.146 1.247l4.288 2.496c-.282.604-.781.99-1.337 1.313-3.478 2.007-6.959 4.01-10.439 6.015-1.2.692-2.408 1.374-3.602 2.077-1.306.77-2.59.75-3.899-.007-4.666-2.701-9.342-5.388-14.012-8.082-.58-.335-1.1-.739-1.376-1.38v-.003Z" fill="#782A79"/><path d="M37.355 30.023c-1.429-.832-2.858-1.665-4.288-2.496-.715-.416-1.432-.83-2.145-1.247-.212-.124-.417-.261-.66-.315-.022-.159-.167-.184-.274-.245-.668-.39-1.334-.784-2.007-1.167-.952-.54-1.874-1.132-2.856-1.619-.792-.461-1.589-.915-2.375-1.386-.851-.51-1.74-.954-2.558-1.52.007-.087.065-.13.136-.172.481-.276.96-.556 1.439-.834l3.34-1.944c1.68-.96 3.36-1.92 5.04-2.877.069-.038.09-.086.082-.156.544-.087.951-.45 1.407-.709 1.71-.968 3.407-1.956 5.109-2.936.2-.116.405-.228.608-.343.34.486.45 1.046.451 1.615.01 5.58.01 11.157.001 16.736 0 .571-.115 1.13-.45 1.616v-.001Zm-3.705-7.11c.386 0 .58-.189.581-.566 0-.052.005-.104 0-.155-.017-.166.053-.218.22-.232.235-.018.556.136.687-.085.108-.185.033-.48.038-.725 0-.026-.003-.052 0-.078.03-.212-.046-.293-.275-.297-.67-.013-.669-.025-.669-.708v-.117c0-.581 0-.577.598-.593.115-.003.31.079.328-.099.033-.32.017-.648.002-.97-.005-.127-.133-.096-.218-.1-.22-.01-.504.065-.643-.044-.173-.136-.069-.439-.062-.666.01-.317-.224-.275-.364-.226-.267.092-.667-.284-.806.214-.064.228.125.556-.091.686-.183.11-.48.031-.726.034-.104.002-.208-.009-.311.003-.215.024-.289-.053-.292-.279-.01-.67-.02-.67-.708-.668-.065 0-.132.007-.195-.001-.204-.027-.263.06-.268.262-.019.639-.027.639-.693.685-.012 0-.026.002-.038 0-.185-.018-.236.095-.205.241.064.308-.16.658.138.927.015.014.051 0 .076.004.236.04.558-.128.689.092.11.184.033.48.037.726.002.104-.01.209.002.312.024.215-.055.291-.28.297-.668.016-.668.027-.667.713 0 .052.007.104 0 .155-.03.23.052.343.3.314.115-.014.234.01.35-.004.245-.03.303.078.303.31 0 .639.01.639.659.639.078 0 .156-.007.233 0 .193.02.271-.042.278-.256.024-.692.035-.691.722-.691h.156c.524 0 .543 0 .52.541-.015.317.068.464.4.407.064-.01.13-.001.195-.001l-.001-.001Z" fill="#972D87"/><path d="M14.96 22.932c-1.195-1.818-1.016-4.602.415-6.459 2.527-3.28 7.57-3.032 9.733.603l-3.34 1.944c-.48.279-.959.558-1.439.834-.07.04-.129.084-.136.172-.287.014-.502.192-.735.324-1.5.857-2.997 1.72-4.496 2.58l-.002.002Z" fill="#B24996"/><path d="M14.96 22.932c1.5-.86 2.997-1.723 4.497-2.58.233-.133.448-.311.735-.324.817.566 1.707 1.01 2.558 1.52.787.47 1.583.925 2.375 1.386-1.603 3.091-5.952 3.943-8.723 1.708-.59-.476-1.103-1.02-1.442-1.709Z" fill="#782A79"/><path d="M33.063 20.083c0 .471-.238.707-.714.707-.465 0-.697-.229-.697-.686 0-.496.251-.745.753-.745.438 0 .657.242.657.724Z" fill="#972D87"/></svg>