<svg width="41" height="44" fill="none" xmlns="http://www.w3.org/2000/svg"><path d="m20.917 1.567-.25-.144-.25.144-17.32 10-.25.144V32.29l.25.144 17.32 10 .25.144.25-.144 17.32-10 .25-.144V11.71l-.25-.144-17.32-10Z" fill="#777BB3" stroke="#FF8A42"/><path d="M13.142 17.612H8.61a.235.235 0 0 0-.234.157l-2.11 11.015c0 .235.235.235.235.235h2.344c.234 0 .234-.157.234-.157l.547-2.734h2.11c3.28 0 4.921-2.187 5.312-4.14.39-1.954.078-4.376-3.906-4.376Zm1.015 4.22c-.312 1.484-1.328 2.109-2.734 2.109h-1.406l.859-4.141h1.406c2.11 0 2.031.781 1.875 2.031ZM22.517 26.128c-.313 0-.235-.312-.235-.312l.938-4.766c0-.625.469-1.25-1.406-1.172h-1.407l-1.172 6.094s0 .234-.312.234h-2.266c-.234 0-.234-.234-.234-.234l2.187-11.016s0-.156.313-.156h2.344c.234 0 .156.234.156.234l-.547 2.657h2.031c2.813 0 3.516 1.328 3.282 2.89l-1.016 5.39s0 .235-.39.235l-2.266-.078ZM31.814 17.612h-4.532a.235.235 0 0 0-.234.157l-2.11 11.015c0 .235.235.235.235.235h2.344c.234 0 .234-.157.234-.157l.547-2.734h2.11c3.28 0 4.921-2.187 5.312-4.14.39-1.954.078-4.376-3.906-4.376Zm1.015 4.22c-.312 1.484-1.328 2.109-2.734 2.109h-1.406l.859-4.141h1.406c2.11 0 2.031.781 1.875 2.031Z" fill="#000" stroke="#fff"/></svg>