<svg xmlns="http://www.w3.org/2000/svg" width="196" height="193" fill="none"><path fill="#7BBBFE" d="M195.301 94.298c-2.161 18.279-10.504 39.531-27.173 49.295-25.188 14.754-23.076 37.449-72.235 47.314-7.665 1.54-14.938 2.187-21.798 2.06a85.101 85.101 0 0 1-10.696-.87c-31.244-4.566-52.269-26.281-59.982-52.496-10.15-34.48 10.118-57.048 23.552-70.647C40.402 55.35 50.24 12.973 98.495 2.898 105.85 1.363 113.376.58 120.897.768c17.168.42 35.892 6.056 48.849 17.824a67.309 67.309 0 0 1 2.842 2.746c18.007 18.484 25.66 48.04 22.717 72.96h-.004Z"/><path fill="#fff" d="M195.301 94.298c-2.161 18.279-10.504 39.531-27.173 49.295-25.188 14.754-23.076 37.449-72.235 47.314-7.665 1.54-14.938 2.187-21.798 2.06a85.101 85.101 0 0 1-10.696-.87c-31.244-4.566-52.269-26.281-59.982-52.496-10.15-34.48 10.118-57.048 23.552-70.647C40.402 55.35 50.24 12.973 98.495 2.898 105.85 1.363 113.376.58 120.897.768c17.168.42 35.892 6.056 48.849 17.824a67.309 67.309 0 0 1 2.842 2.746c18.007 18.484 25.66 48.04 22.717 72.96h-.004Z" opacity=".7"/></svg>