<svg xmlns="http://www.w3.org/2000/svg" width="54" height="53" fill="none"><path fill="#263238" stroke="#263238" stroke-linecap="round" stroke-linejoin="round" d="M27.521 2.007c-13.814 0-25.008 11.199-25.008 25.008 0 7.106 2.969 13.517 7.727 18.069l-3.56 6.642 8.728-2.83a24.911 24.911 0 0 0 12.113 3.127c13.814 0 25.008-11.198 25.008-25.008 0-13.81-11.199-25.008-25.008-25.008Z"/><path fill="#fff" stroke="#263238" stroke-linecap="round" stroke-linejoin="round" d="M26.332.219C12.518.219 1.323 11.417 1.323 25.227c0 7.106 2.97 13.516 7.727 18.068l-3.56 6.643 8.729-2.83a24.91 24.91 0 0 0 12.113 3.127c13.813 0 25.008-11.199 25.008-25.008C51.34 11.417 40.14.219 26.332.219Z"/><path fill="#7BBBFE" d="m17.958 35.534-9.612-6.787v-3.595l9.612-6.856v3.63l-6.888 5.006 6.888 5.007v3.595ZM20.879 36.745l7.324-27.217h3.127l-7.36 27.217H20.88ZM34.25 35.534v-3.595l6.923-5.042-6.922-4.972v-3.63l9.642 6.822v3.595l-9.642 6.822Z"/><path fill="#263238" d="M19.147 34.047 9.536 27.26v-3.594l9.611-6.857v3.63l-6.887 5.006 6.887 5.007v3.595ZM22.068 35.254l7.325-27.217h3.126l-7.36 27.217h-3.09ZM35.444 34.047v-3.595l6.923-5.042-6.922-4.971v-3.63l9.642 6.822v3.594l-9.643 6.822Z"/></svg>