<svg xmlns="http://www.w3.org/2000/svg" width="95" height="76" fill="none"><path fill="#fff" stroke="#263238" stroke-linecap="round" stroke-linejoin="round" d="M56.773 31.88s-4.063-4.968-5.869-8.125S46.54 13.22 44.585 8.856c-1.954-4.364-4.814-5.72-8.273-7.07C32.853.43 31.498.732 31.498 1.637s1.355 2.558 1.355 2.558L26.985 5.25s-2.41-1.356-3.914-.9c-1.504.45-4.364 3.31-4.364 3.31s-3.008-1.055-4.814-.604c-1.806.45-6.77 2.86-8.877 3.914C2.908 12.022.652 12.17.805 13.076c.148.901 2.256 2.41 4.21 2.108 1.955-.302 5.266-1.504 7.373-1.504 2.108 0 3.162.45 4.211 1.202 1.054.752 5.418 6.922 6.017 7.675.604.752 1.203 3.76 1.203 3.76s-2.654-1.132-4.307-2.637c-1.653-1.504-4.023-5.033-6.73-5.334-2.707-.302-5.663 2.103-4.159 3.31 1.505 1.202 3.009 1.954 4.063 3.31 1.054 1.356 2.707 5.418 5.566 9.782 2.86 4.364 9.03 7.07 9.03 7.07l12.79 5.266s3.311-7.823 9.481-9.93c6.17-2.109 7.976-3.01 7.976-3.01l-.752-2.256-.004-.009Z"/><path stroke="#263238" stroke-linecap="round" stroke-linejoin="round" d="M.8 13.072s1.47-.372 1.89-.516c.42-.144.913-.564.913-.564M18.703 7.658s6.93 3.879 8.885 4.928c.805.433 2.711 1.325 3.297 3.298.696 2.33 2.1 3.599 2.1 3.599M26.98 5.249s6.77 5.265 7.224 5.418c.45.149 2.108.302 2.86 1.653.752 1.355 1.505 2.86 1.505 2.86M32.849 4.195s2.41-.45 3.31 1.356c.9 1.806 4.815 6.17 4.815 6.17M11.33 23.606s1.806-.9.901-2.256c-.9-1.356-2.707-1.356-2.707-1.356"/><path fill="#7BBBFE" stroke="#263238" stroke-linecap="round" stroke-linejoin="round" d="M56.47 29.925s-8.124 2.107-13.24 7.823c-5.116 5.72-5.116 10.534-4.666 11.286.45.752 10.233 6.017 10.233 6.017s6.017-11.584 10.232-14.443c4.211-2.86 7.224-3.612 7.224-3.612s-7.521-4.815-7.823-5.418c-.302-.604-.9-2.108-1.955-1.653h-.004Z"/><path fill="#7BBBFE" d="M79.34 75.214s-8.273-4.21-10.232-5.265L53.76 61.672s-1.653-.45-2.558-.901c-.901-.45-2.257-.302-2.86-3.46-.604-3.16.9-9.48 7.674-15.798 6.77-6.319 10.985-6.017 10.985-6.017s2.86-.302 3.612.302c.752.603.9 2.409 1.653 2.706.752.302 21.57 6.542 21.57 6.542"/><path stroke="#263238" stroke-linecap="round" stroke-linejoin="round" d="M79.34 75.214s-8.273-4.21-10.232-5.265L53.76 61.672s-1.653-.45-2.558-.901c-.901-.45-2.257-.302-2.86-3.46-.604-3.16.9-9.48 7.674-15.798 6.77-6.319 10.985-6.017 10.985-6.017s2.86-.302 3.612.302c.752.603.9 2.409 1.653 2.706.752.302 21.57 6.542 21.57 6.542"/><path stroke="#263238" stroke-linecap="round" stroke-linejoin="round" d="M55.719 52.042s-.901 4.513 1.202 8.274M57.826 57.91s-.9.303 1.505 4.212"/></svg>