<svg xmlns="http://www.w3.org/2000/svg" width="96" height="77" fill="none"><path fill="#263238" stroke="#263238" stroke-linecap="round" stroke-linejoin="round" d="M78.43 28.834S68.511 40.617 65.533 43c-2.978 2.384-5.659 3.87-5.659 3.87L49.157 57.59s.298 1.487-2.68 3.275c-2.978 1.789-8.934 3.87-10.42 4.465-1.487.595-17.864 8.037-17.864 8.037L78.425 28.83l.004.005Z"/><path fill="#fff" stroke="#263238" stroke-linecap="round" stroke-linejoin="round" d="M92.816 10.796c-1.041.314-4.797.105-4.797.105s-2.296-1.771-3.442-2.817C83.432 7.044 80.511.891 79.05.576c-1.46-.315-7.613 3.232-7.613 3.232S66.43 1.617 65.18 1.827c-1.251.21-5.318 3.857-5.318 3.857s-5.632-.835-6.673.835c-1.04 1.67-2.711 6.988-4.377 10.324-1.666 3.337-7.714 12.2-7.714 12.2l-.835 1.146s1.25.416 5.108 2.396C49.227 34.566 55.38 43.95 55.38 43.95s8.549-3.961 13.346-6.152c4.797-2.191 8.654-6.988 9.699-8.969 1.04-1.98 2.816-3.857 5.007-5.632 2.19-1.775 6.257-2.501 7.193-3.752.936-1.25-.625-3.127-.625-3.127s1.145-.625 1.666-1.04c.52-.416 2.606-1.566 2.816-2.816.21-1.251-.626-1.981-1.67-1.67l.004.004ZM76.759 20.805l1.98-6.048c.836.626 4.483 1.981 4.483 1.981-2.396.626-6.463 4.067-6.463 4.067Z"/><path stroke="#263238" stroke-linecap="round" stroke-linejoin="round" d="M55.905 12.571s-.315-1.771-.105-2.396c.21-.626 4.067-4.483 4.067-4.483M59.241 14.652l.835-2.71 11.365-8.13M64.873 16.633s.416-2.606.94-3.021c.52-.416 4.483-1.356 4.483-1.356s6.047-5.212 7.088-5.212c1.04 0 8.654 4.066 10.635 3.856M91.355 11.316s-1.36 0-.63.84c.73.835 2.296.415 3.022.21M83.226 16.738s3.752-2.19 6.778-.415M89.064 16.948l-2.086.73s.835 1.67.94 2.296l.105.625M76.759 20.805l-1.876 4.172"/><path fill="#7BBBFE" stroke="#263238" stroke-linecap="round" stroke-linejoin="round" d="M27.232 36.967s6.568-4.276 8.969-6.047c2.396-1.772 3.651-1.461 4.902-1.877 1.25-.415 7.508 1.461 11.68 6.674 4.171 5.212 3.751 9.069 3.231 10.114-.52 1.04-13.66 8.968-13.66 8.968s-1.877-7.508-7.404-11.99-7.714-5.837-7.714-5.837l-.004-.005Z"/><path fill="#7BBBFE" d="M.956 49.443s12.17-7.438 14.198-8.658c2.03-1.22 4.378-2.887 4.378-2.887s.638-3.218 3.734-3.327c3.096-.11 6.083 1.11 10.14 3.327 4.059 2.222 9.074 10.32 9.608 13.539.533 3.218 1.6 4.215.747 6.327-.852 2.112-4.058 2.222-4.696 2.222-.639 0-2.134 1.333-2.134 1.333L14.087 76.191"/><path stroke="#263238" stroke-linecap="round" stroke-linejoin="round" d="M.956 49.443s12.17-7.438 14.198-8.658c2.03-1.22 4.378-2.887 4.378-2.887s.638-3.218 3.734-3.327c3.096-.11 6.083 1.11 10.14 3.327 4.059 2.222 9.074 10.32 9.608 13.539.533 3.218 1.6 4.215.747 6.327-.852 2.112-4.058 2.222-4.696 2.222-.639 0-2.134 1.333-2.134 1.333L14.087 76.191"/><path stroke="#263238" stroke-linecap="round" stroke-linejoin="round" d="M38.715 54.336s.953.708-.953 3.686M37.35 55.753s-.135 3.122-2.999 5.956"/></svg>