<svg xmlns="http://www.w3.org/2000/svg" width="168" height="131" fill="none"><path fill="#263238" stroke="#263238" stroke-linecap="round" stroke-linejoin="round" d="M23.584 1.45h120.297a3.486 3.486 0 0 1 3.485 3.484v83.718H20.099V4.934a3.486 3.486 0 0 1 3.485-3.485Z"/><path fill="#fff" stroke="#263238" stroke-linecap="round" stroke-linejoin="round" d="M166.453 127.199H1.007L20.1 88.652h127.267l19.087 38.547Z"/><path fill="#7BBBFE" stroke="#263238" stroke-linecap="round" stroke-linejoin="round" d="M139.657 8.354H27.808v73.394h111.849V8.353Z"/><path fill="#263238" stroke="#fff" stroke-linecap="round" stroke-linejoin="round" d="m78.424 100.852.218-4.696h-6.725l-.442 4.696h6.949ZM92.32 100.852l-.227-4.696h-6.725l.004 4.696h6.949ZM128.515 105.877h7.188l-1.683-5.025h-6.953l1.448 5.025ZM71.475 100.852l.442-4.696h-6.721l-.673 4.696h6.952ZM57.574 100.852l.897-4.696h-6.726l-1.12 4.696h6.95ZM120.119 100.852l-1.128-4.696h-6.726l.905 4.696h6.949Z"/><path fill="#263238" stroke="#fff" stroke-linecap="round" stroke-linejoin="round" d="m127.067 100.852-1.351-4.696h-6.725l1.128 4.696h6.948ZM50.626 100.852l1.12-4.696H45.02l-1.343 4.696h6.949ZM99.27 100.852l-.451-4.696h-6.726l.228 4.696h6.948ZM134.02 100.852l-1.579-4.696h-6.725l1.351 4.696h6.953ZM113.17 100.852l-.905-4.696h-6.725l.682 4.696h6.948Z"/><path fill="#263238" stroke="#fff" stroke-linecap="round" stroke-linejoin="round" d="m106.222 100.852-.682-4.696h-6.721l.45 4.696h6.953ZM85.372 100.852l-.004-4.696h-6.725l-.22 4.696h6.95ZM36.724 100.852h-6.948l-1.92 5.025h7.194l1.675-5.025ZM38.294 96.156h-6.72l-1.798 4.696h6.948l1.57-4.696Z"/><path fill="#263238" stroke="#fff" stroke-linecap="round" stroke-linejoin="round" d="m43.677 100.852 1.343-4.696h-6.726l-1.57 4.696h6.953ZM25.801 111.26l-2.208 5.781h7.722l1.933-5.781h-7.447ZM35.05 105.877h-7.193L25.8 111.26h7.447l1.802-5.383Z"/><path fill="#263238" stroke="#fff" stroke-linecap="round" stroke-linejoin="round" d="m33.248 111.26-1.933 5.781h7.727l1.653-5.781h-7.447ZM64.523 100.852l.673-4.696h-6.725l-.897 4.696h6.949Z"/><path fill="#263238" stroke="#fff" stroke-linecap="round" stroke-linejoin="round" d="m63.806 105.877.717-5.025h-6.949l-.957 5.025h7.189Z"/><path fill="#263238" stroke="#fff" stroke-linecap="round" stroke-linejoin="round" d="m56.617 105.877.957-5.025h-6.948l-1.198 5.025h7.189ZM70.999 105.877l.476-5.025h-6.952l-.717 5.025h7.193ZM43.677 100.852h-6.953l-1.674 5.025h7.189l1.438-5.025ZM130.067 111.26h7.447l-1.811-5.383h-7.188l1.552 5.383Z"/><path fill="#263238" stroke="#fff" stroke-linecap="round" stroke-linejoin="round" d="m49.428 105.877 1.198-5.025h-6.949l-1.438 5.025h7.189ZM35.05 105.877l-1.802 5.383h7.447l1.544-5.383h-7.19ZM114.137 105.877l-.967-5.025h-6.948l.726 5.025h7.189ZM106.948 105.877l-.726-5.025h-6.953l.485 5.025h7.194ZM128.515 105.877l-1.448-5.025h-6.948l1.207 5.025h7.189ZM85.377 105.877l-.005-5.025h-6.948l-.236 5.025h7.189Z"/><path fill="#263238" stroke="#fff" stroke-linecap="round" stroke-linejoin="round" d="m99.754 105.877-.485-5.025h-6.948l.245 5.025h7.188Z"/><path fill="#263238" stroke="#fff" stroke-linecap="round" stroke-linejoin="round" d="m92.566 105.877-.245-5.025h-6.949l.005 5.025h7.189ZM78.188 105.877l.236-5.025h-6.949L71 105.877h7.189ZM99.754 105.877l.521 5.383h7.451l-.778-5.383h-7.194Z"/><path fill="#263238" stroke="#fff" stroke-linecap="round" stroke-linejoin="round" d="m106.948 105.877.778 5.383h7.447l-1.036-5.383h-7.189ZM42.239 105.877l-1.544 5.383h7.447l1.286-5.383h-7.19Z"/><path fill="#263238" stroke="#fff" stroke-linecap="round" stroke-linejoin="round" d="m114.137 105.877 1.036 5.383h7.447l-1.294-5.383h-7.189ZM85.377 105.877l.004 5.383h7.447l-.263-5.383h-7.188Z"/><path fill="#263238" stroke="#fff" stroke-linecap="round" stroke-linejoin="round" d="m121.326 105.877 1.294 5.383h7.447l-1.552-5.383h-7.189ZM92.566 105.877l.262 5.383h7.447l-.52-5.383h-7.19ZM56.617 105.877l-1.024 5.383h7.447l.766-5.383h-7.19Z"/><path fill="#263238" stroke="#fff" stroke-linecap="round" stroke-linejoin="round" d="m49.428 105.877-1.286 5.383h7.451l1.023-5.383h-7.188ZM78.188 105.877l-.254 5.383h7.447l-.004-5.383h-7.19Z"/><path fill="#263238" stroke="#fff" stroke-linecap="round" stroke-linejoin="round" d="m70.999 105.877-.512 5.383h7.447l.254-5.383h-7.19Z"/><path fill="#263238" stroke="#fff" stroke-linecap="round" stroke-linejoin="round" d="m63.806 105.877-.766 5.383h7.447l.512-5.383h-7.193ZM121.326 105.877l-1.207-5.025h-6.949l.967 5.025h7.189ZM38.294 96.156l1.61-4.81H33.41l-1.837 4.81h6.721ZM31.573 96.156h-6.21l-2.002 4.696h6.415l1.797-4.696Z"/><path fill="#263238" stroke="#fff" stroke-linecap="round" stroke-linejoin="round" d="M33.41 91.346h-5.995l-2.051 4.81h6.21l1.836-4.81ZM29.776 100.852h-6.415l-2.138 5.025h6.633l1.92-5.025Z"/><path fill="#263238" stroke="#fff" stroke-linecap="round" stroke-linejoin="round" d="M27.857 105.877h-6.634l-2.296 5.383h6.874l2.056-5.383ZM25.801 111.26h-6.874l-2.466 5.781h7.132l2.208-5.781ZM140.968 100.852l1.929 5.025h6.358l-2.138-5.025h-6.149ZM144.961 111.26h6.59l-2.296-5.383h-6.358l2.064 5.383Z"/><path fill="#263238" stroke="#fff" stroke-linecap="round" stroke-linejoin="round" d="M147.182 117.041h6.831l-2.462-5.781h-6.59l2.221 5.781ZM92.093 96.156l-.236-4.81h-6.493l.004 4.81h6.725ZM140.968 100.852h6.149l-2.003-4.696h-5.952l1.806 4.696Z"/><path fill="#263238" stroke="#fff" stroke-linecap="round" stroke-linejoin="round" d="M137.514 111.26h7.447l-2.064-5.383h-7.194l1.811 5.383ZM45.02 96.156l1.377-4.81h-6.493l-1.61 4.81h6.726ZM132.441 96.156l1.579 4.696h6.948l-1.806-4.696h-6.721ZM145.114 96.156l-2.051-4.81h-5.746l1.845 4.81h5.952Z"/><path fill="#263238" stroke="#fff" stroke-linecap="round" stroke-linejoin="round" d="m139.162 96.156-1.845-4.81h-6.494l1.618 4.81h6.721ZM115.173 111.26l1.111 5.781h7.727l-1.391-5.781h-7.447ZM139.455 117.041h7.727l-2.221-5.781h-7.447l1.941 5.781Z"/><path fill="#263238" stroke="#fff" stroke-linecap="round" stroke-linejoin="round" d="m132.441 96.156-1.618-4.81h-6.493l1.386 4.81h6.725ZM130.067 111.26l1.666 5.781h7.722l-1.941-5.781h-7.447Z"/><path fill="#263238" stroke="#fff" stroke-linecap="round" stroke-linejoin="round" d="m122.62 111.26 1.391 5.781h7.722l-1.666-5.781h-7.447ZM135.703 105.877h7.194l-1.929-5.025h-6.948l1.683 5.025ZM71.917 96.156l.46-4.81h-6.499l-.682 4.81h6.721ZM125.716 96.156l-1.386-4.81h-6.494l1.155 4.81h6.725Z"/><path fill="#263238" stroke="#fff" stroke-linecap="round" stroke-linejoin="round" d="m65.196 96.156.682-4.81h-6.493l-.914 4.81h6.725ZM85.368 96.156l-.004-4.81H78.87l-.228 4.81h6.726ZM58.47 96.156l.915-4.81H52.89l-1.146 4.81h6.726Z"/><path fill="#263238" stroke="#fff" stroke-linecap="round" stroke-linejoin="round" d="m51.745 96.156 1.146-4.81h-6.494l-1.377 4.81h6.725ZM78.642 96.156l.228-4.81h-6.494l-.459 4.81h6.725ZM118.991 96.156l-1.155-4.81h-6.494l.923 4.81h6.726Z"/><path fill="#263238" stroke="#fff" stroke-linecap="round" stroke-linejoin="round" d="m112.265 96.156-.923-4.81h-6.498l.696 4.81h6.725ZM98.819 96.156l-.468-4.81h-6.494l.236 4.81h6.726ZM115.173 111.26H40.695l-1.653 5.781h77.242l-1.111-5.781Z"/><path fill="#263238" stroke="#fff" stroke-linecap="round" stroke-linejoin="round" d="m105.54 96.156-.696-4.81h-6.493l.468 4.81h6.721Z"/><path fill="#263238" stroke="#263238" stroke-linecap="round" stroke-linejoin="round" d="M166.528 127.199H1.008v2.348h165.52v-2.348Z"/><path stroke="#263238" stroke-linecap="round" stroke-linejoin="round" stroke-width="3" d="M35.02 14.144h7.21"/><path stroke="#fff" stroke-linecap="round" stroke-linejoin="round" stroke-width="3" d="M35.02 17.843h27.089M76.92 17.843h27.089"/><path stroke="#263238" stroke-linecap="round" stroke-linejoin="round" stroke-width="3" d="M63.862 17.843H74.58M35.02 21.547h15.588M52.559 21.547h15.589M70.098 21.547h15.594M87.637 21.547h6.63M44.176 14.144h7.21M87.051 14.144h7.216"/><path stroke="#fff" stroke-linecap="round" stroke-linejoin="round" stroke-width="3" d="M77.505 14.144h7.211"/><path stroke="#263238" stroke-linecap="round" stroke-linejoin="round" stroke-width="3" d="M53.337 14.144h21.05M35.02 36.751h7.21"/><path stroke="#fff" stroke-linecap="round" stroke-linejoin="round" stroke-width="3" d="M35.02 40.45h27.089"/><path stroke="#263238" stroke-linecap="round" stroke-linejoin="round" stroke-width="3" d="M76.92 40.45h27.089M63.862 40.45H74.58M35.02 44.154h15.588M52.559 44.154h15.589"/><path stroke="#fff" stroke-linecap="round" stroke-linejoin="round" stroke-width="3" d="M70.098 44.154h15.594"/><path stroke="#263238" stroke-linecap="round" stroke-linejoin="round" stroke-width="3" d="M87.637 44.154h6.63M44.176 36.751h7.21M87.051 36.751h7.216"/><path stroke="#fff" stroke-linecap="round" stroke-linejoin="round" stroke-width="3" d="M77.505 36.751h7.211"/><path stroke="#263238" stroke-linecap="round" stroke-linejoin="round" stroke-width="3" d="M53.337 36.751h21.05M35.02 70.076h7.21"/><path stroke="#fff" stroke-linecap="round" stroke-linejoin="round" stroke-width="3" d="M35.02 73.78h27.089"/><path stroke="#263238" stroke-linecap="round" stroke-linejoin="round" stroke-width="3" d="M76.92 73.78h27.089M63.862 73.78H74.58M35.02 77.48h15.588M52.559 77.48h15.589"/><path stroke="#fff" stroke-linecap="round" stroke-linejoin="round" stroke-width="3" d="M70.098 77.48h15.594"/><path stroke="#263238" stroke-linecap="round" stroke-linejoin="round" stroke-width="3" d="M87.637 77.48h6.63M44.176 70.076h7.21M87.051 70.076h7.216"/><path stroke="#fff" stroke-linecap="round" stroke-linejoin="round" stroke-width="3" d="M77.505 70.076h7.211"/><path stroke="#263238" stroke-linecap="round" stroke-linejoin="round" stroke-width="3" d="M53.337 70.076h21.05M75.555 25.448h7.211M66.005 25.448h7.21M41.84 25.448h21.047M75.555 32.072h7.211M66.005 32.072h7.21"/><path stroke="#fff" stroke-linecap="round" stroke-linejoin="round" stroke-width="3" d="M41.84 32.072h21.047"/><path stroke="#263238" stroke-linecap="round" stroke-linejoin="round" stroke-width="3" d="M49.052 28.758H41.84M58.597 28.758h-7.21"/><path stroke="#fff" stroke-linecap="round" stroke-linejoin="round" stroke-width="3" d="M82.766 28.758H61.72"/><path stroke="#263238" stroke-linecap="round" stroke-linejoin="round" stroke-width="3" d="M75.555 48.637h7.211M66.005 48.637h7.21M41.84 48.637h21.047M75.555 55.266h7.211M66.005 55.266h7.21"/><path stroke="#fff" stroke-linecap="round" stroke-linejoin="round" stroke-width="3" d="M41.84 55.266h21.047"/><path stroke="#263238" stroke-linecap="round" stroke-linejoin="round" stroke-width="3" d="M49.052 51.951H41.84M58.597 51.951h-7.21"/><path stroke="#fff" stroke-linecap="round" stroke-linejoin="round" stroke-width="3" d="M82.766 51.951H61.72"/><path stroke="#263238" stroke-linecap="round" stroke-linejoin="round" stroke-width="3" d="M49.052 59.162H41.84M58.597 59.162h-7.21"/><path stroke="#fff" stroke-linecap="round" stroke-linejoin="round" stroke-width="3" d="M82.766 59.162H61.72"/><path stroke="#263238" stroke-linecap="round" stroke-linejoin="round" stroke-width="3" d="M49.052 65.787H41.84M58.597 65.787h-7.21"/><path stroke="#fff" stroke-linecap="round" stroke-linejoin="round" stroke-width="3" d="M82.766 65.787H61.72"/><path stroke="#263238" stroke-linecap="round" stroke-linejoin="round" stroke-width="3" d="M75.555 62.477h7.211M66.005 62.477h7.21"/><path stroke="#fff" stroke-linecap="round" stroke-linejoin="round" stroke-width="3" d="M41.84 62.477h21.047"/><path fill="#263238" d="M32.343 12.854h-2.305v2.274h2.305v-2.274ZM32.343 16.593h-2.305v2.273h2.305v-2.273ZM32.343 20.327h-2.305V22.6h2.305v-2.274ZM32.343 24.061h-2.305v2.274h2.305v-2.274ZM32.343 27.8h-2.305v2.274h2.305V27.8ZM32.343 31.534h-2.305v2.274h2.305v-2.274ZM32.343 35.269h-2.305v2.274h2.305v-2.274ZM32.343 39.008h-2.305v2.274h2.305v-2.274ZM32.343 42.742h-2.305v2.274h2.305v-2.274ZM32.343 46.476h-2.305v2.274h2.305v-2.274ZM32.343 50.215h-2.305v2.274h2.305v-2.274ZM32.343 53.95h-2.305v2.273h2.305V53.95ZM32.343 57.684h-2.305v2.274h2.305v-2.274ZM32.343 61.423h-2.305v2.274h2.305v-2.274ZM32.343 65.157h-2.305v2.274h2.305v-2.274ZM32.343 68.892h-2.305v2.273h2.305v-2.273ZM32.343 72.63h-2.305v2.274h2.305V72.63ZM32.343 76.365h-2.305v2.274h2.305v-2.274Z"/></svg>