<svg width="50" height="50" viewBox="0 0 50 50" fill="none" xmlns="http://www.w3.org/2000/svg">
<path d="M25 0L46.6506 12.5V37.5L25 50L3.34937 37.5V12.5L25 0Z" fill="white"/>
<path fill-rule="evenodd" clip-rule="evenodd" d="M25 6L5 12.6406L8.04895 37.2598L25 46L41.951 37.2598L45 12.6406L25 6Z" fill="#DD0031"/>
<path fill-rule="evenodd" clip-rule="evenodd" d="M25 6V10.4401V10.4206V30.681V46L41.951 37.2598L45 12.6406L25 6Z" fill="#C3002F"/>
<path fill-rule="evenodd" clip-rule="evenodd" d="M25 10.4206L12.4965 36.5209H17.1573L19.6713 30.681H30.2832L32.7972 36.5209H37.458L25 10.4206ZM28.6538 27.0807H21.3496L25 18.9004L28.6538 27.0807Z" fill="white"/>
</svg>
