<svg width="50" height="50" viewBox="0 0 50 50" fill="none" xmlns="http://www.w3.org/2000/svg">
<path d="M25 0L46.6506 12.5V37.5L25 50L3.34937 37.5V12.5L25 0Z" fill="white"/>
<ellipse cx="27.5" cy="27.452" rx="11.5" ry="12" fill="white"/>
<path d="M27.3599 42.7306C26.5115 42.4131 25.6272 42.2207 24.7576 41.9768C22.349 41.3013 19.9366 40.6359 17.5243 39.976C17.3076 39.9171 17.2394 39.8085 17.2219 39.5968C16.9434 36.3738 16.6612 33.1508 16.3735 29.9277C16.0406 26.2022 15.7003 22.4776 15.3647 18.7529C15.2448 17.4277 15.1351 16.1014 15.0069 14.7762C14.9792 14.4908 15.0235 14.3859 15.3536 14.3859C23.4518 14.397 31.5501 14.396 39.6483 14.3878C39.9323 14.3878 40.0236 14.4457 39.995 14.7439C39.7875 16.9251 39.593 19.1082 39.3975 21.2903C39.2259 23.1982 39.059 25.107 38.8884 27.0158C38.6911 29.2209 38.4901 31.426 38.2937 33.6312C38.1212 35.5621 37.9432 37.4929 37.7911 39.4256C37.7634 39.7745 37.6555 39.93 37.3042 40.0257C34.1367 40.8862 30.9756 41.7688 27.8126 42.6459C27.7499 42.6634 27.6697 42.6459 27.6383 42.7288H27.3626L27.3599 42.7306ZM27.488 19.5932C27.488 19.5932 27.488 19.5997 27.488 19.6024C27.0509 19.6024 26.6138 19.6024 26.1768 19.6024C24.1066 19.6024 22.0354 19.6024 19.9652 19.6033C19.8048 19.6033 19.6176 19.538 19.6545 19.8472C19.7531 20.6663 19.849 21.4882 19.885 22.3119C19.9016 22.6892 20.0325 22.7454 20.3673 22.7445C24.1056 22.7362 27.844 22.7454 31.5823 22.7417C31.8322 22.7417 31.9069 22.7748 31.8728 23.0583C31.7704 23.9004 31.6985 24.7471 31.6496 25.5938C31.634 25.8663 31.5556 25.9316 31.2919 25.9307C28.6693 25.9233 26.0467 25.9307 23.4242 25.9325C22.4467 25.9325 21.4683 25.939 20.4908 25.9279C20.2622 25.9252 20.2059 25.9749 20.2336 26.2169C20.3267 27.025 20.4125 27.8367 20.4438 28.6494C20.4576 29.012 20.5775 29.0746 20.9077 29.0737C24.2781 29.0654 27.6476 29.0755 31.018 29.0718C31.2688 29.0718 31.3417 29.1105 31.3131 29.3884C31.1941 30.5398 31.1056 31.6948 31.0124 32.8498C30.9977 33.0293 30.9525 33.1314 30.7524 33.1839C29.7104 33.4554 28.673 33.7453 27.6337 34.0288C27.5323 34.0564 27.4327 34.0582 27.3285 34.0288C26.2902 33.7444 25.2518 33.4591 24.2098 33.1876C24.0309 33.1406 23.9802 33.0661 23.9664 32.8885C23.9157 32.2258 23.8318 31.565 23.7866 30.9024C23.7709 30.6769 23.6999 30.6171 23.4813 30.6207C22.6302 30.6327 21.7791 30.6318 20.9279 30.6207C20.7057 30.618 20.6319 30.6612 20.655 30.906C20.7905 32.3445 20.9113 33.784 21.0275 35.2234C21.0469 35.4636 21.1539 35.5694 21.3844 35.632C23.3513 36.1686 25.3146 36.7152 27.2787 37.261C27.4392 37.3052 27.5895 37.2978 27.7508 37.2527C29.6929 36.7116 31.6358 36.1695 33.5824 35.6449C33.8351 35.5768 33.9356 35.4755 33.9449 35.216C33.9578 34.8497 34.0168 34.4862 34.0491 34.1208C34.2399 31.9396 34.4271 29.7575 34.6199 27.5763C34.8476 25.0067 35.0763 22.4371 35.3161 19.8684C35.3364 19.6558 35.305 19.5886 35.0791 19.5895C32.5487 19.596 30.0184 19.5941 27.4871 19.5941L27.488 19.5932Z" fill="#3D5CAA"/>
<path d="M27.3562 7.45853C27.9085 7.45853 28.46 7.46406 29.0123 7.45485C29.1737 7.45209 29.2521 7.49259 29.2235 7.66285C29.2217 7.67389 29.2235 7.68586 29.2235 7.6969C29.1995 8.07056 29.3812 8.55834 29.1507 8.78383C28.9671 8.96329 28.4756 8.83168 28.1206 8.83537C27.8219 8.83813 27.5222 8.83352 27.2234 8.83721C27.1312 8.83813 27.0131 8.79395 27.0104 8.97066C27.0076 9.14552 27.121 9.11055 27.2178 9.11055C27.8043 9.11239 28.3908 9.11883 28.9773 9.10687C29.1672 9.10318 29.2309 9.1492 29.2281 9.34892C29.217 10.2444 29.218 11.1399 29.2281 12.0345C29.23 12.2241 29.1848 12.2857 28.9847 12.2839C27.8809 12.2738 26.7761 12.2747 25.6723 12.2839C25.4824 12.2857 25.4077 12.2415 25.4243 12.0409C25.4575 11.6452 25.3828 11.2448 25.4658 10.85C25.8439 10.8445 26.221 10.8371 26.5991 10.8334C26.8748 10.8307 27.1515 10.8353 27.4272 10.8316C27.5194 10.8307 27.6374 10.8748 27.6402 10.6981C27.643 10.5233 27.5295 10.5582 27.4327 10.5582C26.8462 10.5564 26.2597 10.55 25.6733 10.5619C25.4833 10.5656 25.4197 10.5196 25.4224 10.3199C25.4335 9.44739 25.4326 8.57491 25.4224 7.70335C25.4206 7.51376 25.4649 7.44841 25.6659 7.45393C26.2293 7.46774 26.7927 7.45853 27.3562 7.45853Z" fill="#1E1E1E"/>
<path d="M31.8811 12.2802C31.3288 12.2802 30.7773 12.2719 30.225 12.2848C30.0295 12.2894 29.9686 12.2332 29.9787 12.0381C29.9944 11.7059 29.9917 11.3727 29.9787 11.0396C29.9723 10.8721 30.0267 10.827 30.1908 10.8297C30.7773 10.8389 31.3638 10.8362 31.9503 10.8297C32.0443 10.8288 32.1937 10.9015 32.1928 10.6944C32.1928 10.4874 32.0434 10.561 31.9494 10.5601C31.3739 10.5545 30.7994 10.549 30.224 10.5619C30.0295 10.5665 29.9741 10.5113 29.9769 10.3162C29.987 9.44369 29.987 8.5712 29.9769 7.69964C29.9741 7.50545 30.0285 7.45207 30.2231 7.45299C31.3269 7.46219 32.4316 7.46219 33.5354 7.45299C33.73 7.45115 33.7918 7.50361 33.7816 7.69964C33.7623 8.06409 33.9052 8.54543 33.7236 8.76447C33.5354 8.9918 33.0356 8.8197 32.6723 8.83258C32.3625 8.84362 32.0517 8.83626 31.741 8.83442C31.6432 8.83442 31.5657 8.83258 31.5657 8.97339C31.5657 9.1142 31.6441 9.11144 31.7419 9.11144C32.3403 9.11052 32.9379 9.11881 33.5354 9.10684C33.73 9.10316 33.7853 9.15746 33.7826 9.35257C33.7724 10.2481 33.7724 11.1436 33.7826 12.0381C33.7844 12.2323 33.7318 12.2894 33.5364 12.2848C32.9849 12.2719 32.4326 12.2802 31.8802 12.2802H31.8811Z" fill="#1E1E1E"/>
<path d="M20.8708 9.82382C20.8708 9.12344 20.8782 8.42398 20.8662 7.7236C20.8625 7.52297 20.8975 7.44934 21.1234 7.4521C22.2153 7.46591 23.308 7.46315 24.4007 7.45394C24.5999 7.4521 24.6875 7.48247 24.6728 7.71072C24.6506 8.054 24.6516 8.40005 24.6728 8.74242C24.6866 8.97435 24.6331 9.05902 24.3804 9.04889C23.8179 9.02773 23.2536 9.04797 22.6902 9.03877C22.5214 9.03601 22.4458 9.0673 22.4541 9.26057C22.4707 9.63883 22.4725 10.018 22.4541 10.3963C22.4439 10.6098 22.5334 10.6337 22.7123 10.631C23.2868 10.6208 23.8622 10.6328 24.4367 10.6236C24.6064 10.6208 24.6801 10.654 24.6718 10.8463C24.6552 11.2246 24.6598 11.6038 24.6709 11.982C24.6755 12.1532 24.6386 12.2176 24.4478 12.2167C23.3329 12.2075 22.2171 12.2057 21.1022 12.2167C20.8883 12.2185 20.8662 12.1366 20.868 11.9581C20.8772 11.2467 20.8717 10.5352 20.8717 9.82382H20.8708Z" fill="#1E1E1E"/>
</svg>
