<svg width="50" height="50" viewBox="0 0 50 50" fill="none" xmlns="http://www.w3.org/2000/svg">
<path d="M25 0L46.6506 12.5V37.5L25 50L3.34937 37.5V12.5L25 0Z" fill="white"/>
<path d="M24.3618 44.3228C23.4351 43.9887 22.4733 43.7724 21.5263 43.5065C19.2072 42.8549 16.8835 42.2153 14.558 41.5849C14.3127 41.5186 14.238 41.4072 14.2168 41.167C13.9522 38.1153 13.6746 35.0645 13.4045 32.0128C13.1638 29.3043 12.9296 26.5949 12.688 23.8865C12.4694 21.4412 12.2463 18.996 12.0222 16.5507C11.9706 15.9884 11.9651 15.9884 12.5109 15.9884C20.5406 15.9884 28.5693 15.9903 36.599 15.9811C36.9282 15.9811 37.0278 16.0427 36.9937 16.3888C36.7585 18.8331 36.5418 21.2783 36.3233 23.7245C36.1278 25.9075 35.9397 28.0904 35.7451 30.2734C35.5266 32.7186 35.3025 35.1639 35.084 37.6101C34.9789 38.7871 34.871 39.9642 34.7825 41.1431C34.7631 41.399 34.6819 41.5112 34.4228 41.5821C31.2019 42.4619 27.9856 43.3574 24.7684 44.2482C24.7168 44.262 24.6495 44.2455 24.6366 44.3246H24.3609L24.3618 44.3228ZM24.4983 21.1872V21.1937C24.3599 21.1937 24.2226 21.1937 24.0842 21.1937C21.7034 21.1937 19.3225 21.1937 16.9407 21.1918C16.7563 21.1918 16.6106 21.1725 16.642 21.4523C16.7314 22.2382 16.7913 23.0278 16.8642 23.8165C17.0624 25.9756 17.2699 28.1337 17.4488 30.2936C17.4746 30.6084 17.576 30.6608 17.8591 30.6599C21.2064 30.6553 24.5536 30.6627 27.9008 30.6673C27.981 30.6673 28.0622 30.6737 28.1424 30.6664C28.3185 30.6498 28.3425 30.7216 28.3268 30.8891C28.2143 32.0763 28.1101 33.2653 28.0161 34.4543C27.9995 34.6651 27.91 34.7479 27.7173 34.7985C26.6965 35.0636 25.6776 35.3378 24.6596 35.6121C24.5444 35.6434 24.4392 35.6388 24.3231 35.6075C23.294 35.3295 22.264 35.0535 21.2313 34.7875C21.0478 34.7406 20.9795 34.666 20.9666 34.4672C20.9233 33.8037 20.8421 33.1429 20.7933 32.4794C20.7785 32.2797 20.7259 32.207 20.5102 32.2097C19.636 32.2235 18.7619 32.2198 17.8877 32.2116C17.695 32.2097 17.6314 32.2511 17.6507 32.4619C17.7881 33.9233 17.9145 35.3866 18.0343 36.8499C18.0518 37.0671 18.1468 37.16 18.3506 37.2162C20.3184 37.7564 22.2843 38.304 24.2493 38.8534C24.4097 38.8985 24.5573 38.8985 24.7186 38.8534C26.6726 38.3077 28.6265 37.7619 30.5851 37.2327C30.8396 37.1637 30.9438 37.0634 30.9382 36.7984C30.9327 36.5361 30.9788 36.2729 31.0028 36.0106C31.248 33.326 31.4942 30.6424 31.7386 27.9579C31.7782 27.5189 31.7727 27.518 31.3237 27.518C27.7809 27.5198 24.2382 27.518 20.6955 27.5281C20.4438 27.5281 20.3442 27.4794 20.3258 27.2033C20.2695 26.3796 20.181 25.5578 20.098 24.7369C20.0565 24.3273 20.051 24.3273 20.4696 24.3273C24.2198 24.3292 27.9691 24.3292 31.7192 24.3384C31.9774 24.3384 32.0779 24.2813 32.0964 24.0052C32.1517 23.1585 32.2264 22.3128 32.3214 21.4689C32.349 21.2213 32.2789 21.1817 32.0567 21.1817C29.5375 21.1882 27.0184 21.1854 24.4992 21.1854L24.4983 21.1872Z" fill="#F05129"/>
<path d="M27.4287 10.7068C27.7394 10.1979 28.0326 9.73316 28.3074 9.25828C28.4006 9.09723 28.5048 9.04017 28.6901 9.04753C29.0801 9.06318 29.472 9.0595 29.8621 9.04845C30.0419 9.04293 30.1249 9.07238 30.123 9.28405C30.1138 10.7179 30.1147 12.1517 30.123 13.5856C30.124 13.7779 30.0557 13.8138 29.8842 13.8083C29.5052 13.7972 29.1253 13.7926 28.7463 13.8092C28.5389 13.8184 28.5029 13.7365 28.5057 13.5524C28.5158 12.9008 28.5094 12.2493 28.5094 11.4937C28.1175 12.091 27.7772 12.6091 27.413 13.1641C27.0506 12.6109 26.7039 12.0836 26.3009 11.4689C26.3009 12.2226 26.2936 12.8705 26.3055 13.5184C26.3092 13.7254 26.2797 13.8276 26.0335 13.811C25.6785 13.7871 25.3207 13.7991 24.9648 13.8073C24.8016 13.811 24.7186 13.7871 24.7195 13.5883C24.7278 12.1425 24.7251 10.6976 24.7214 9.25184C24.7214 9.11103 24.7509 9.02913 24.9104 9.05029C24.9325 9.05305 24.9565 9.05029 24.9796 9.05029C25.4508 9.05305 26.0013 8.90673 26.3701 9.10091C26.7205 9.28589 26.8819 9.82795 27.1253 10.2136C27.223 10.3682 27.3171 10.5237 27.4296 10.705L27.4287 10.7068Z" fill="#0A0909"/>
<path d="M14.2952 11.4329C14.2952 10.7215 14.3017 10.0092 14.2906 9.29783C14.2878 9.10456 14.3413 9.03922 14.5386 9.0475C14.9066 9.06223 15.2754 9.06959 15.6424 9.04566C15.8904 9.03002 15.9246 9.13493 15.9172 9.342C15.9034 9.6862 15.9236 10.0313 15.9098 10.3746C15.9015 10.5752 15.9725 10.6341 16.1671 10.624C16.5442 10.6037 17.0348 10.7445 17.269 10.5577C17.517 10.3599 17.3511 9.84817 17.3391 9.47637C17.328 9.14506 17.3935 8.99965 17.7614 9.0429C18.0786 9.08064 18.405 9.05671 18.7268 9.04843C18.8891 9.04382 18.974 9.06591 18.9721 9.26562C18.9638 10.7123 18.9647 12.1581 18.9721 13.6049C18.9721 13.7862 18.8974 13.8101 18.7471 13.8073C18.3561 13.8 17.9642 13.7954 17.5742 13.8092C17.3852 13.8156 17.3409 13.7457 17.3464 13.5717C17.3575 13.2045 17.34 12.8364 17.3538 12.4701C17.3612 12.2824 17.3179 12.2051 17.1122 12.2161C16.8024 12.2336 16.4898 12.2382 16.1809 12.2152C15.9485 12.1977 15.92 12.2971 15.9273 12.4913C15.9412 12.8585 15.9236 13.2257 15.9347 13.5929C15.9393 13.7567 15.8895 13.8128 15.7226 13.8082C15.3206 13.7981 14.9176 13.7944 14.5156 13.8092C14.3201 13.8165 14.2924 13.7355 14.2943 13.5671C14.3017 12.8557 14.298 12.1434 14.298 11.432L14.2952 11.4329Z" fill="#0A0909"/>
<path d="M21.8481 9.05116C22.5028 9.05116 23.1575 9.05853 23.8122 9.04656C24.0077 9.04288 24.0713 9.09902 24.063 9.29596C24.0483 9.66225 24.0474 10.0294 24.063 10.3957C24.0722 10.5991 23.9966 10.6479 23.8076 10.6396C23.4978 10.6258 23.187 10.6479 22.8781 10.6313C22.6808 10.6212 22.631 10.6856 22.6328 10.878C22.643 11.7605 22.6301 12.6431 22.6421 13.5257C22.6448 13.7456 22.5941 13.8239 22.3627 13.8101C22.0196 13.7889 21.6729 13.7916 21.3299 13.8101C21.1123 13.8211 21.0385 13.7668 21.0431 13.534C21.0588 12.6864 21.0376 11.8378 21.0561 10.9893C21.0616 10.7169 21.0155 10.5973 20.7112 10.6295C20.4272 10.6599 20.1376 10.6267 19.8509 10.6396C19.684 10.647 19.6323 10.5954 19.6379 10.4279C19.6498 10.0497 19.6526 9.67145 19.6379 9.2932C19.6296 9.09626 19.6904 9.04288 19.8859 9.04656C20.5406 9.05853 21.1953 9.05116 21.85 9.05116H21.8481Z" fill="#0A0909"/>
<path d="M30.8912 11.3961C30.8912 10.6967 30.8976 9.99722 30.8866 9.29779C30.8838 9.10637 30.9299 9.03827 31.1309 9.04747C31.4859 9.06404 31.8437 9.0668 32.1987 9.04747C32.4348 9.03367 32.5104 9.09533 32.5058 9.34381C32.4892 10.1804 32.5113 11.0178 32.4929 11.8544C32.4864 12.1379 32.5316 12.2538 32.8553 12.2345C33.4048 12.2014 33.9581 12.2317 34.5086 12.2216C34.6856 12.2179 34.7511 12.2667 34.7456 12.4508C34.7336 12.829 34.7317 13.2082 34.7456 13.5855C34.753 13.7732 34.6847 13.811 34.5114 13.81C33.3855 13.8027 32.2596 13.8018 31.1337 13.81C30.9391 13.8119 30.8829 13.7594 30.8866 13.5625C30.8986 12.84 30.8912 12.1176 30.8912 11.3952V11.3961Z" fill="#0A0909"/>
</svg>
