<svg width="50" height="50" viewBox="0 0 50 50" fill="none" xmlns="http://www.w3.org/2000/svg">
<path d="M25 0L46.6506 12.5V37.5L25 50L3.34937 37.5V12.5L25 0Z" fill="white"/>
<g clip-path="url(#clip0_28_935)">
<path d="M22.9473 43C22.5576 42.8265 22.1338 42.8938 21.7314 42.8684C19.6592 42.7369 17.6084 42.4552 15.5713 42.0653C15.4951 42.0507 15.4209 42.0283 15.3447 42.0117C15.1494 41.9698 14.9873 41.8792 15.0068 41.656C15.0293 41.4113 15.2139 41.3548 15.4316 41.3616C17.1045 41.4113 18.7773 41.4766 20.4512 41.502C22.1396 41.5273 23.8291 41.5312 25.5176 41.5078C27.4629 41.4815 29.4092 41.4415 31.3428 41.2047C33.3916 40.9532 35.3584 40.4162 37.1611 39.3743C37.4307 39.2183 37.6865 39.0419 37.9238 38.8373C38.0586 38.7203 38.2061 38.5799 38.4053 38.7154C38.6055 38.8519 38.5762 39.0546 38.5127 39.2427C38.2725 39.9601 37.7881 40.4883 37.1846 40.9191C35.9687 41.7866 34.5684 42.1433 33.124 42.3762C31.3965 42.655 29.6602 42.8558 27.9102 42.9298C27.8662 42.9318 27.8242 42.9747 27.7812 42.9991H22.9473V43Z" fill="#7F9DD1"/>
<path d="M29.2812 6.89085C29.3008 8.55654 28.5918 9.91229 27.501 11.1131C26.335 12.3967 24.9531 13.4357 23.6338 14.5458C23.2373 14.8792 22.8652 15.2427 22.4775 15.5877C21.6211 16.3509 21.4004 17.2963 21.5811 18.4045C21.8955 20.3382 22.5508 22.155 23.3721 23.9211C23.4316 24.0497 23.5039 24.1735 23.5566 24.3061C23.6211 24.4688 23.6494 24.6374 23.4922 24.77C23.3281 24.9084 23.166 24.8372 23.0352 24.7271C21.2529 23.2261 19.6582 21.576 18.8193 19.3411C18.2041 17.7008 18.4541 16.1764 19.415 14.7261C20.2891 13.4074 21.4277 12.3636 22.6836 11.4289C23.7549 10.6326 24.8838 9.91327 25.8936 9.03315C26.999 8.07019 27.4189 6.78851 27.624 5.40352C27.708 4.83627 27.7051 4.26707 27.624 3.69884C27.5938 3.48442 27.583 3.26122 27.8398 3.18422C28.0723 3.11502 28.1875 3.29046 28.291 3.4659C28.9121 4.52438 29.2715 5.65791 29.2822 6.89182L29.2812 6.89085Z" fill="#D93E27"/>
<path d="M12.29 37.9854C12.8945 38.3372 13.5645 38.4376 14.2168 38.5526C16.0693 38.8781 17.9385 39.0438 19.8184 39.1315C21.8711 39.2271 23.9209 39.2241 25.9678 39.0974C28.8662 38.9181 31.751 38.6082 34.5703 37.8635C34.9336 37.767 35.2939 37.6608 35.6328 37.4912C35.8457 37.385 35.9658 37.2436 35.8525 36.9951C35.7783 36.8333 35.8008 36.6764 35.9473 36.5799C36.1035 36.4776 36.2656 36.5214 36.415 36.6335C37.0645 37.1228 37.1152 37.8684 36.5361 38.4405C36.1279 38.845 35.5996 39.0487 35.085 39.2514C33.7061 39.7963 32.2627 40.1111 30.8027 40.3528C28.3418 40.7592 25.8643 40.92 23.3721 41.0048C21.4092 41.0711 19.4512 41.0243 17.4941 40.9512C15.4883 40.8762 13.4814 40.7319 11.5303 40.1978C10.9033 40.0263 10.292 39.8031 9.80762 39.3411C9.03125 38.6013 9.16309 37.7134 10.1104 37.2251C11.0762 36.7271 12.1318 36.5935 13.1865 36.4688C13.8555 36.3898 14.5293 36.3547 15.2012 36.306C15.4365 36.2885 15.7188 36.2612 15.749 36.5828C15.7773 36.8918 15.498 36.9347 15.2686 36.9814C14.4297 37.153 13.5957 37.3392 12.8008 37.6686C12.6221 37.7427 12.4395 37.808 12.291 37.9863L12.29 37.9854Z" fill="#7F9DD1"/>
<path d="M15.9111 26.5341C16.8477 26.7973 17.7559 26.8275 18.6582 26.887C20.7725 27.0263 22.8887 26.9873 25.0029 26.884C26.9834 26.7875 28.9619 26.6589 30.9121 26.27C31.166 26.2193 31.4209 26.1706 31.6709 26.1024C31.8848 26.0439 32.0723 26.0673 32.1748 26.269C32.2871 26.4912 32.1299 26.6296 31.9639 26.7476C31.3252 27.2027 30.6201 27.54 29.8896 27.807C28.1035 28.4581 26.2568 28.8304 24.3613 29.0039C22.6768 29.1579 20.9912 29.1784 19.3047 29.1365C17.71 29.0965 16.1201 28.962 14.5781 28.5146C13.9414 28.3294 13.3193 28.0926 12.8447 27.5975C12.2793 27.0078 12.3633 26.2232 13.0371 25.7602C13.7881 25.2447 14.6611 25.0965 15.5303 24.9503C16.6709 24.7583 17.8223 24.6901 18.9795 24.6998C19.1934 24.7018 19.4258 24.6832 19.4707 24.9581C19.5195 25.2573 19.2764 25.3148 19.0586 25.3655C18.1992 25.5653 17.3447 25.7788 16.5342 26.1345C16.3271 26.2252 16.0967 26.2905 15.9121 26.5351L15.9111 26.5341Z" fill="#7F9DD1"/>
<path d="M25.5215 25.8752C25.5361 25.8353 25.5693 25.7251 25.6162 25.6199C25.8379 25.1209 25.9814 24.6023 26.084 24.0653C26.1836 23.5419 26.0674 23.1004 25.7412 22.6881C25.1221 21.9074 24.457 21.1481 24.1309 20.1862C23.6543 18.7788 23.3877 17.3704 24.3408 16.0283C24.8496 15.3119 25.4902 14.7281 26.1934 14.2125C27.748 13.0711 29.4629 12.2212 31.2402 11.4873C31.4502 11.4006 31.6445 11.3538 31.7754 11.5965C31.9004 11.8275 31.7373 11.9591 31.582 12.0819C30.4521 12.9747 29.3271 13.8723 28.3018 14.8869C27.8955 15.2885 27.5068 15.7047 27.1885 16.1823C26.6338 17.0166 26.5576 17.8577 27.123 18.7203C27.3926 19.1316 27.667 19.5409 27.916 19.9649C28.9795 21.7749 28.8271 23.3226 27.4404 24.9152C27.0303 25.386 26.585 25.8187 26.0811 26.1901C25.9473 26.2885 25.8018 26.3411 25.6484 26.2515C25.541 26.1881 25.498 26.078 25.5205 25.8762L25.5215 25.8752Z" fill="#D93E27"/>
<path d="M23.5576 37.3099C21.6836 37.2076 19.9189 37.1559 18.2158 36.6238C17.7539 36.4795 17.3184 36.2924 16.9414 35.9786C16.1465 35.3177 16.2275 34.3304 17.1387 33.847C17.5889 33.6072 18.084 33.4883 18.6006 33.501C18.9365 33.5097 19.0752 33.6832 18.9277 33.9698C18.8076 34.2018 18.873 34.2398 19.0879 34.2963C19.9326 34.5156 20.7988 34.576 21.6611 34.6725C23.7266 34.9045 25.7451 34.5487 27.7598 34.1735C28.0215 34.1248 28.2324 34.1452 28.458 34.2885C29.0049 34.6374 29.5654 34.9639 30.1191 35.3021C30.2852 35.4035 30.4629 35.5029 30.4375 35.7446C30.4141 35.9727 30.2256 36.0136 30.0576 36.0819C28.5937 36.6754 27.0684 37.001 25.501 37.1784C24.8144 37.2563 24.124 37.1784 23.5586 37.309L23.5576 37.3099Z" fill="#7F9DD1"/>
<path d="M21.8271 32.9698C20.0674 32.9688 18.333 32.7963 16.667 32.1813C16.3242 32.0546 16 31.8869 15.7109 31.6657C15.1436 31.229 15.1367 30.5731 15.6875 30.115C16.2559 29.6423 16.9629 29.4981 17.6494 29.3119C17.8213 29.2651 17.9551 29.3684 18.0127 29.5341C18.0674 29.692 17.9834 29.8051 17.8604 29.8996C17.7041 30.0195 17.3818 30.0731 17.4512 30.2943C17.5186 30.5107 17.8369 30.5078 18.0615 30.5468C20.0938 30.8996 22.1357 30.8869 24.1855 30.7242C25.791 30.5965 27.374 30.3402 28.9395 29.9737C29.1416 29.9259 29.292 29.9708 29.4473 30.0799C29.8818 30.3869 30.3174 30.692 30.7539 30.9961C30.9277 31.117 31.1143 31.2378 31.0547 31.4883C31 31.7222 30.7793 31.7446 30.5947 31.7836C29.1504 32.0887 27.7051 32.386 26.2412 32.5916C24.7764 32.7973 23.3105 32.9747 21.8281 32.9698H21.8271Z" fill="#7F9DD1"/>
<path d="M35.9375 24.1589C37.3965 24.1511 38.4795 25.1121 38.8486 26.9669C39.1475 28.4708 38.4434 29.5595 37.335 30.4269C35.9424 31.5166 34.3076 32.1014 32.6045 32.5136C32.4121 32.5604 32.2588 32.5195 32.1777 32.348C32.084 32.1501 32.1924 32.0029 32.3555 31.8879C33.4092 31.1501 34.4189 30.3596 35.2832 29.4006C35.6572 28.9864 36.0039 28.5497 36.2217 28.0283C36.5117 27.3343 36.3027 26.6501 35.6758 26.2281C34.917 25.7173 34.0449 25.5897 33.1641 25.5058C32.9522 25.4854 32.7676 25.4513 32.7227 25.2144C32.6797 24.9854 32.8594 24.8928 33.0254 24.8197C33.8721 24.4464 34.7402 24.152 35.9365 24.1589H35.9375Z" fill="#7F9DD1"/>
</g>
<defs>
<clipPath id="clip0_28_935">
<rect width="40" height="40" fill="white" transform="translate(4 3)"/>
</clipPath>
</defs>
</svg>
