<svg width="50" height="50" viewBox="0 0 50 50" fill="none" xmlns="http://www.w3.org/2000/svg">
<path d="M25 0L46.6506 12.5V37.5L25 50L3.34937 37.5V12.5L25 0Z" fill="#FEDF00"/>
<g clip-path="url(#clip0_28_1311)">
<path d="M39.9945 9.11694C39.9945 18.9888 39.9938 28.8607 40 38.7318C40 38.9509 39.9509 39 39.7318 39C29.8599 38.9938 19.988 38.9945 10.1169 38.9945C10.1169 29.1538 10.1185 19.3131 10.1099 9.47243C10.1099 9.17853 10.1785 9.10992 10.4724 9.10992C20.3131 9.1185 30.1538 9.11694 39.9945 9.11694ZM33.0274 36.6605C33.4569 36.6659 33.881 36.6121 34.302 36.542C36.725 36.135 38.0768 34.1728 37.5895 31.7662C37.3697 30.6826 36.7218 29.9054 35.823 29.3059C34.9382 28.7157 33.9465 28.347 32.9861 27.912C32.5885 27.7319 32.187 27.5541 31.872 27.2384C31.5049 26.8697 31.4409 26.4206 31.5844 25.9451C31.7247 25.4812 32.0763 25.238 32.5417 25.1608C33.4219 25.015 34.0705 25.3627 34.5281 26.1096C34.5928 26.2156 34.624 26.3653 34.822 26.2327C35.4425 25.818 36.0756 25.4204 36.707 25.022C36.8185 24.9519 36.8466 24.8981 36.7694 24.7749C36.3827 24.1567 35.9204 23.6102 35.2788 23.2477C34.1679 22.6209 32.9658 22.532 31.7504 22.7901C30.2934 23.0996 29.2277 23.9361 28.8714 25.4251C28.5027 26.9663 28.8418 28.3532 30.0868 29.4337C30.7861 30.0402 31.6234 30.4027 32.4606 30.7652C33.082 31.035 33.7275 31.2611 34.2755 31.6711C35.1798 32.347 35.0255 33.5413 33.9808 33.9701C33.3759 34.218 32.7506 34.2102 32.1238 34.0551C31.3217 33.8563 30.7619 33.3371 30.3292 32.6651C30.2263 32.5053 30.1609 32.4577 29.9777 32.57C29.3579 32.9496 28.7288 33.3153 28.0926 33.6661C27.911 33.7659 27.9289 33.8462 28.0147 33.9943C28.2298 34.3661 28.4785 34.7115 28.7787 35.0187C29.9441 36.213 31.409 36.6371 33.0266 36.6605H33.0274ZM26.3955 27.9385C26.3955 26.3247 26.3908 24.7118 26.4009 23.098C26.4025 22.8805 26.3495 22.8205 26.1296 22.8252C25.3812 22.84 24.6328 22.8408 23.8844 22.8252C23.6466 22.8197 23.578 22.8743 23.5788 23.123C23.5882 26.1267 23.5858 29.1297 23.5827 32.1334C23.5827 32.4047 23.5718 32.6783 23.5344 32.9473C23.4712 33.4073 23.2989 33.8103 22.8382 34.0146C22.1179 34.3342 21.2471 34.112 20.7731 33.4829C20.6273 33.2895 20.4917 33.0861 20.3778 32.874C20.296 32.722 20.2297 32.7181 20.0925 32.8031C19.4494 33.2007 18.8015 33.5912 18.1506 33.9764C18.0126 34.0574 17.9923 34.1284 18.0687 34.2695C18.499 35.067 19.0767 35.7265 19.8968 36.128C21.2658 36.7985 22.6807 36.832 24.1027 36.3182C25.1045 35.9565 25.7578 35.2323 26.1101 34.2321C26.312 33.6583 26.3923 33.0642 26.3939 32.4593C26.3986 30.9523 26.3955 29.4462 26.3962 27.9392L26.3955 27.9385Z" fill="#FEDF00"/>
<path d="M33.0274 36.6604C31.409 36.637 29.9449 36.2137 28.7794 35.0186C28.4801 34.7115 28.2314 34.3661 28.0154 33.9943C27.9297 33.8461 27.9117 33.7666 28.0934 33.666C28.7295 33.3145 29.3587 32.9488 29.9784 32.57C30.1616 32.4577 30.2271 32.5052 30.33 32.6651C30.7635 33.3371 31.3232 33.8555 32.1246 34.0551C32.7514 34.211 33.3766 34.2188 33.9816 33.9701C35.0255 33.5413 35.1806 32.347 34.2763 31.6711C33.7282 31.2618 33.082 31.0349 32.4614 30.7652C31.6241 30.4019 30.7869 30.0402 30.0876 29.4337C28.8426 28.3532 28.5027 26.9663 28.8722 25.4251C29.2285 23.936 30.2942 23.0995 31.7512 22.7901C32.9666 22.532 34.1687 22.6217 35.2796 23.2477C35.9212 23.6094 36.3835 24.1559 36.7702 24.7749C36.8474 24.8981 36.8185 24.9518 36.7078 25.022C36.0763 25.4204 35.4433 25.818 34.8228 26.2327C34.6255 26.3645 34.5936 26.2148 34.5289 26.1095C34.072 25.3627 33.4226 25.0142 32.5425 25.1608C32.0771 25.238 31.7255 25.4812 31.5852 25.945C31.4417 26.4206 31.5056 26.8696 31.8728 27.2384C32.1878 27.5541 32.5893 27.7318 32.9868 27.9119C33.9473 28.3469 34.9389 28.7157 35.8238 29.3058C36.7226 29.9053 37.3705 30.6818 37.5903 31.7662C38.0775 34.1728 36.7257 36.135 34.3028 36.5419C33.881 36.6129 33.4577 36.6659 33.0282 36.6604H33.0274Z" fill="#060601"/>
<path d="M26.3947 27.9385C26.3947 29.4454 26.3978 30.9516 26.3931 32.4585C26.3916 33.0627 26.3113 33.6575 26.1094 34.2313C25.757 35.2315 25.1037 35.9557 24.1019 36.3175C22.68 36.8312 21.265 36.7985 19.8961 36.1272C19.0759 35.7258 18.4983 35.0662 18.0679 34.2687C17.9915 34.1276 18.0118 34.0574 18.1498 33.9756C18.8007 33.5912 19.4486 33.1999 20.0917 32.8023C20.2289 32.7173 20.296 32.7212 20.3771 32.8733C20.4917 33.0861 20.6273 33.2895 20.7723 33.4821C21.2463 34.112 22.1171 34.3334 22.8374 34.0138C23.2982 33.8095 23.4705 33.4065 23.5336 32.9465C23.5702 32.6784 23.5812 32.4047 23.5819 32.1326C23.5851 29.1289 23.5874 26.1259 23.578 23.1222C23.5773 22.8735 23.6466 22.8189 23.8836 22.8244C24.632 22.8408 25.3804 22.8392 26.1288 22.8244C26.3487 22.8197 26.4017 22.8797 26.4001 23.0973C26.39 24.711 26.3947 26.324 26.3947 27.9377V27.9385Z" fill="#060601"/>
</g>
<defs>
<clipPath id="clip0_28_1311">
<rect width="30" height="30" fill="white" transform="translate(10 9)"/>
</clipPath>
</defs>
</svg>
