<svg width="50" height="50" viewBox="0 0 50 50" fill="none" xmlns="http://www.w3.org/2000/svg">
<path d="M25 0L46.6506 12.5V37.5L25 50L3.34937 37.5V12.5L25 0Z" fill="#777BB3"/>
<path d="M15.5938 19.5156H9.92969C9.86628 19.512 9.80343 19.5291 9.75059 19.5643C9.69775 19.5996 9.65779 19.651 9.63672 19.7109L7 33.4805C7 33.7734 7.29297 33.7734 7.29297 33.7734H10.2227C10.5156 33.7734 10.5156 33.5781 10.5156 33.5781L11.1992 30.1601H13.8359C17.9375 30.1601 19.9883 27.4258 20.4766 24.9844C20.9648 22.543 20.5742 19.5156 15.5938 19.5156ZM16.8633 24.789C16.4727 26.6445 15.2031 27.4258 13.4453 27.4258H11.6875L12.7617 22.25H14.5195C17.1562 22.25 17.0586 23.2265 16.8633 24.789Z" fill="black" stroke="white"/>
<path d="M27.3125 30.1602C26.9219 30.1602 27.0195 29.7695 27.0195 29.7695L28.1914 23.8125C28.1914 23.0312 28.7773 22.25 26.4336 22.3477H24.6758L23.2109 29.9648C23.2109 29.9648 23.2109 30.2578 22.8203 30.2578H19.9883C19.6953 30.2578 19.6953 29.9648 19.6953 29.9648L22.4297 16.1953C22.4297 16.1953 22.4297 16 22.8203 16H25.75C26.043 16 25.9453 16.293 25.9453 16.293L25.2617 19.6133H27.8008C31.3164 19.6133 32.1953 21.2734 31.9023 23.2266L30.6328 29.9648C30.6328 29.9648 30.6328 30.2578 30.1445 30.2578L27.3125 30.1602Z" fill="black" stroke="white"/>
<path d="M38.9336 19.5156H33.2695C33.2061 19.512 33.1433 19.5291 33.0904 19.5643C33.0376 19.5996 32.9976 19.651 32.9766 19.7109L30.3398 33.4805C30.3398 33.7734 30.6328 33.7734 30.6328 33.7734H33.5625C33.8555 33.7734 33.8555 33.5781 33.8555 33.5781L34.5391 30.1601H37.1758C41.2773 30.1601 43.3281 27.4258 43.8164 24.9844C44.3047 22.543 43.9141 19.5156 38.9336 19.5156ZM40.2031 24.789C39.8125 26.6445 38.543 27.4258 36.7852 27.4258H35.0273L36.1016 22.25H37.8594C40.4961 22.25 40.3984 23.2265 40.2031 24.789Z" fill="black" stroke="white"/>
</svg>
