<svg width="50" height="50" viewBox="0 0 50 50" fill="none" xmlns="http://www.w3.org/2000/svg">
<path d="M25 0L46.6506 12.5V37.5L25 50L3.34937 37.5V12.5L25 0Z" fill="white"/>
<path d="M25.6821 27.7519C25.1709 27.9868 24.6108 28.2929 23.4896 28.9082C23.0645 29.1474 22.6202 29.3865 22.2068 29.6118C22.1781 29.5831 22.1483 29.547 22.1197 29.5172C19.9016 27.1472 15.7992 25.4733 15.9735 22.2902C16.0384 21.1307 16.4369 18.0869 23.852 14.3905C29.9545 11.3828 34.8104 12.216 35.649 14.0642C36.8542 16.6989 33.0462 21.6015 26.7439 22.3125C26.0463 22.454 25.3259 22.4369 24.6359 22.2625C23.9459 22.0882 23.3039 21.7609 22.7573 21.305C22.4236 20.9426 22.3737 20.9214 22.2504 20.9936C22.0474 21.0999 22.1781 21.4283 22.2504 21.6164C22.4908 22.0517 22.816 22.4343 23.2068 22.7417C23.5977 23.0491 24.0462 23.2751 24.5258 23.4062C27.006 23.9422 29.5918 23.6861 31.9186 22.6739C35.7383 21.1956 38.7205 17.0857 37.8468 13.6402C36.97 10.1468 31.1714 8.9947 25.6853 10.9439C22.2496 12.1017 19.0753 13.9243 16.3434 16.3078C13.3208 19.1348 12.8425 21.592 13.0381 22.6208C13.7417 26.2736 18.7772 28.651 20.7965 30.4121C20.6902 30.4705 20.6009 30.5184 20.5212 30.5641C19.5137 31.0646 15.6728 33.0722 14.7152 35.1957C13.6279 37.6019 14.8895 39.3268 15.7227 39.5585C16.9784 39.8592 18.2966 39.7604 19.4934 39.2756C20.6902 38.7909 21.7057 37.9445 22.3981 36.8547C22.9861 35.951 23.3472 34.9186 23.4506 33.8454C23.5541 32.7722 23.3968 31.6899 22.9922 30.6905C23.2309 30.5001 23.4855 30.3305 23.7532 30.1836C24.2676 29.8796 24.7575 29.5799 25.1922 29.3482C26.6805 28.6511 28.3047 28.2921 29.9482 28.2971C33.398 28.7031 34.0792 30.8553 33.9485 31.7618C33.8874 32.0835 33.758 32.3883 33.5692 32.6557C33.3804 32.9232 33.1365 33.1471 32.8538 33.3124C32.6147 33.4644 32.535 33.5154 32.5563 33.6238C32.585 33.7833 32.7008 33.7758 32.9038 33.7471C33.4221 33.5833 33.8788 33.2665 34.2137 32.8384C34.5487 32.4103 34.7463 31.8909 34.7807 31.3484C34.887 29.2228 32.8602 26.8911 29.2722 26.9123C28.1979 26.9142 27.1343 27.1261 26.1413 27.5362C25.9818 27.6021 25.827 27.6729 25.6768 27.7487L25.6821 27.7519ZM20.5542 36.0831C19.4085 37.3298 17.8143 37.8006 17.1256 37.4021C16.3816 36.9769 16.676 35.133 18.0821 33.8141C18.9149 33.0638 19.815 32.3917 20.771 31.8065C20.9378 31.7002 21.1844 31.5599 21.4809 31.3813C21.5319 31.3526 21.5606 31.3378 21.5606 31.3378L21.7349 31.2315C21.9857 32.0723 22.0085 32.9646 21.801 33.8171C21.5936 34.6696 21.1632 35.4516 20.5542 36.0831Z" fill="#CD6799"/>
</svg>
