<svg width="50" height="50" viewBox="0 0 50 50" fill="none" xmlns="http://www.w3.org/2000/svg">
<path d="M25 0L46.6506 12.5V37.5L25 50L3.34937 37.5V12.5L25 0Z" fill="#007ACC"/>
<g clip-path="url(#clip0_99_21725)">
<path d="M10 25V10H40V40H10" fill="#007ACC"/>
<path d="M16.5775 25.0525V26.275H20.4775V37.375H23.245V26.275H27.145V25.075C27.145 24.4 27.145 23.8525 27.115 23.8375C27.115 23.815 24.7375 23.8075 21.85 23.8075L16.6 23.83V25.06L16.5775 25.0525ZM34.105 23.8C34.87 23.98 35.455 24.325 35.98 24.8725C36.2575 25.1725 36.67 25.6975 36.7 25.8325C36.7 25.8775 35.4025 26.755 34.615 27.2425C34.585 27.265 34.465 27.1375 34.345 26.9425C33.955 26.3875 33.5575 26.1475 32.935 26.1025C32.035 26.0425 31.435 26.515 31.435 27.3025C31.435 27.5425 31.48 27.6775 31.57 27.8725C31.7725 28.285 32.1475 28.5325 33.31 29.0425C35.455 29.965 36.385 30.5725 36.9475 31.4425C37.585 32.4175 37.7275 33.9475 37.3 35.095C36.82 36.3475 35.65 37.195 33.9775 37.4725C33.4525 37.5625 32.2525 37.5475 31.69 37.45C30.49 37.225 29.3425 36.625 28.6375 35.8525C28.36 35.5525 27.8275 34.75 27.8575 34.6975L28.1425 34.5175L29.2675 33.865L30.115 33.37L30.31 33.6325C30.5575 34.0225 31.1125 34.5475 31.435 34.7275C32.41 35.23 33.715 35.1625 34.36 34.5775C34.6375 34.3225 34.7575 34.0525 34.7575 33.6775C34.7575 33.3325 34.705 33.175 34.5325 32.9125C34.2925 32.5825 33.8125 32.3125 32.4625 31.7125C30.91 31.0525 30.25 30.6325 29.635 29.9875C29.2825 29.5975 28.96 28.99 28.81 28.4875C28.6975 28.0525 28.66 26.9875 28.765 26.56C29.0875 25.06 30.22 24.01 31.84 23.71C32.365 23.605 33.6025 23.65 34.12 23.785L34.105 23.8Z" fill="white"/>
</g>
<defs>
<clipPath id="clip0_99_21725">
<rect width="30" height="30" fill="white" transform="translate(10 10)"/>
</clipPath>
</defs>
</svg>
