<svg width="20" height="20" viewBox="0 0 20 20" fill="none" xmlns="http://www.w3.org/2000/svg">
<path d="M5.38015 0.0391602C5.5489 0.0391602 5.71817 0.0391602 5.88692 0.0391602C5.89369 0.049056 5.8989 0.0662435 5.90775 0.067806C6.57442 0.206348 7.0213 0.651139 7.11817 1.31156C7.15463 1.55947 7.13796 1.81572 7.13588 2.06833C7.13484 2.16833 7.16192 2.20322 7.26557 2.20218C7.68015 2.19697 8.09525 2.19645 8.50984 2.20218C8.62755 2.20374 8.6489 2.15635 8.6463 2.05322C8.64109 1.8527 8.6364 1.65062 8.65098 1.45062C8.69838 0.80791 9.03015 0.367806 9.62338 0.120931C9.67911 0.0974935 9.75515 0.110514 9.7864 0.0381185C9.96817 0.0381185 10.1505 0.0381185 10.3322 0.0381185C10.3385 0.0485352 10.3426 0.0662435 10.351 0.0683268C11.1067 0.243848 11.5489 0.784473 11.5687 1.56364C11.5729 1.73239 11.5749 1.90166 11.5676 2.07041C11.563 2.17354 11.5979 2.2027 11.6994 2.20166C12.115 2.19645 12.5312 2.19645 12.9468 2.20166C13.0416 2.2027 13.0703 2.1751 13.0671 2.08135C13.0604 1.89958 13.0624 1.71781 13.0661 1.53551C13.0801 0.862598 13.4697 0.328223 14.102 0.104785C14.1463 0.0891602 14.2104 0.10166 14.2317 0.0381185C14.4005 0.0381185 14.5697 0.0381185 14.7385 0.0381185C14.8453 0.0724935 14.9551 0.100618 15.0588 0.142806C15.6604 0.384473 15.988 0.924056 15.99 1.66416C15.99 1.83239 15.9328 2.05062 16.0161 2.15531C16.1135 2.27822 16.3426 2.19541 16.514 2.19645C17.9135 2.20531 18.915 3.20583 18.9176 4.60687C18.9197 5.60739 18.9176 6.60791 18.9176 7.60791C18.9176 10.947 18.9203 14.286 18.9166 17.6251C18.915 18.96 17.9041 19.9959 16.5968 19.997C12.2119 20.0006 7.82702 19.9985 3.44213 19.9985C3.19317 19.9985 2.95046 19.959 2.71609 19.8777C1.73327 19.5371 1.12598 18.6793 1.12598 17.6209C1.12442 13.2751 1.12546 8.92927 1.12546 4.58343C1.12546 4.51833 1.1265 4.45374 1.12911 4.38864C1.16661 3.43551 1.88275 2.54801 2.80098 2.29176C3.22338 2.17406 3.65098 2.2027 4.07807 2.20114C4.18952 2.20114 4.22286 2.16989 4.21765 2.05999C4.20932 1.88499 4.21244 1.70947 4.21609 1.53395C4.23015 0.861556 4.62025 0.32666 5.25202 0.103743C5.2963 0.0881185 5.36036 0.100618 5.38171 0.0375977L5.38015 0.0391602ZM10.026 5.62145C7.5838 5.62145 5.14109 5.62354 2.6989 5.61729C2.5265 5.61729 2.48744 5.65843 2.48796 5.82926C2.49317 9.73343 2.50046 13.6371 2.48432 17.5412C2.48171 18.2183 2.95775 18.6423 3.58275 18.6402C7.86973 18.6267 12.1572 18.6261 16.4447 18.6402C17.0864 18.6423 17.5593 18.2168 17.5562 17.5345C17.54 13.6371 17.5473 9.73968 17.552 5.84176C17.552 5.67197 17.5203 5.61572 17.3348 5.61624C14.8989 5.62354 12.463 5.62093 10.027 5.62093L10.026 5.62145ZM9.46557 2.88604C9.46557 3.32145 9.46296 3.75635 9.46609 4.19176C9.46921 4.61052 9.7338 4.90843 10.0979 4.91156C10.4588 4.91416 10.7395 4.61781 10.7432 4.20114C10.7505 3.32458 10.7505 2.44749 10.7432 1.57093C10.7395 1.15426 10.4583 0.85791 10.0973 0.860514C9.73484 0.863639 9.46921 1.16312 9.46609 1.58083C9.46296 2.01572 9.46557 2.45114 9.46557 2.88656V2.88604ZM6.31661 2.89593C6.31661 2.46051 6.31817 2.02562 6.31661 1.5902C6.31505 1.16676 6.04005 0.856869 5.67286 0.859473C5.31505 0.862077 5.03692 1.17041 5.03536 1.57926C5.03171 2.44958 5.03223 3.32041 5.03536 4.19072C5.03692 4.60114 5.31348 4.90739 5.67234 4.91051C6.04161 4.91364 6.31505 4.60635 6.31713 4.18187C6.31921 3.75322 6.31713 3.32458 6.31713 2.89541L6.31661 2.89593ZM15.1671 2.89593C15.1671 2.46051 15.1687 2.02562 15.1671 1.5902C15.165 1.16572 14.8916 0.856869 14.5239 0.859473C14.1661 0.862077 13.8874 1.16989 13.8859 1.57926C13.8822 2.44958 13.8822 3.32041 13.8859 4.19072C13.8874 4.60114 14.1645 4.90739 14.5229 4.91051C14.8926 4.91364 15.165 4.60739 15.1671 4.18187C15.1692 3.75322 15.1671 3.32458 15.1671 2.89541V2.89593Z" fill="#7BBBFE"/>
<path d="M4.99065 10.2905C4.61409 10.2905 4.23805 10.2869 3.86149 10.2926C3.75367 10.2942 3.71565 10.2671 3.7167 10.1535C3.7219 9.49833 3.72138 8.84312 3.7167 8.18739C3.71617 8.07541 3.75211 8.04416 3.86149 8.04468C4.60784 8.04885 5.35367 8.04937 6.10003 8.04468C6.21253 8.04416 6.24065 8.07854 6.23961 8.18739C6.23492 8.8426 6.23492 9.49781 6.23961 10.1535C6.24065 10.264 6.2094 10.2952 6.09951 10.2931C5.72972 10.2864 5.35992 10.2905 4.99013 10.2905H4.99065Z" fill="#7BBBFE"/>
<path d="M15.062 10.2907C14.6922 10.2907 14.3219 10.2865 13.9521 10.2933C13.8385 10.2954 13.7964 10.275 13.7974 10.1474C13.8047 9.49848 13.8052 8.84952 13.7974 8.20056C13.7958 8.06254 13.8464 8.04431 13.9646 8.04484C14.6911 8.049 15.4182 8.05161 16.1453 8.04327C16.2995 8.04119 16.3255 8.09379 16.324 8.23233C16.3167 8.8615 16.3167 9.49119 16.324 10.1209C16.3255 10.2563 16.2901 10.2974 16.1526 10.2933C15.7896 10.2834 15.426 10.2901 15.0625 10.2901L15.062 10.2907Z" fill="#7BBBFE"/>
<path d="M4.9708 13.2782C4.601 13.2782 4.23121 13.2746 3.86194 13.2803C3.75205 13.2819 3.71715 13.2485 3.71767 13.1371C3.72236 12.4819 3.72236 11.8267 3.71767 11.172C3.71663 11.0569 3.75778 11.0334 3.86403 11.0339C4.60986 11.0381 5.35569 11.0386 6.10153 11.0339C6.21246 11.0334 6.24163 11.0652 6.24111 11.1746C6.23642 11.8298 6.2359 12.485 6.24111 13.1397C6.24215 13.2506 6.21038 13.2829 6.09996 13.2808C5.72392 13.2746 5.34788 13.2782 4.97132 13.2782H4.9708Z" fill="#7BBBFE"/>
<path d="M15.0506 11.0359C15.4266 11.0359 15.8032 11.0395 16.1792 11.0333C16.2896 11.0312 16.323 11.0635 16.3224 11.1744C16.3178 11.8297 16.3178 12.4849 16.3224 13.1401C16.3235 13.2557 16.2803 13.2802 16.1745 13.2797C15.4287 13.276 14.6823 13.2755 13.9365 13.2802C13.8219 13.2807 13.798 13.2422 13.7985 13.1359C13.8026 12.4807 13.8037 11.8255 13.7985 11.1703C13.7974 11.0562 13.8355 11.0317 13.9417 11.0333C14.3115 11.039 14.6813 11.0354 15.0511 11.0354L15.0506 11.0359Z" fill="#7BBBFE"/>
<path d="M8.35574 8.04744C8.71928 8.04744 9.08335 8.05265 9.44689 8.04431C9.56928 8.04171 9.59845 8.07973 9.59741 8.19796C9.59168 8.84744 9.59272 9.49692 9.59689 10.1464C9.59741 10.248 9.58439 10.2943 9.46356 10.2933C8.71668 10.2875 7.96981 10.2881 7.22293 10.2928C7.11512 10.2933 7.07918 10.2667 7.08022 10.1537C7.08543 9.49796 7.08543 8.84171 7.08022 8.18598C7.07918 8.07244 7.1172 8.04327 7.22553 8.04483C7.6021 8.05056 7.97866 8.04692 8.35574 8.04692V8.04744Z" fill="#7BBBFE"/>
<path d="M11.713 8.04737C12.0766 8.04737 12.4406 8.05206 12.8042 8.04477C12.9229 8.04269 12.9599 8.07498 12.9589 8.19685C12.9531 8.84633 12.9526 9.49581 12.9589 10.1448C12.9599 10.2687 12.9214 10.2937 12.8052 10.2932C12.0651 10.288 11.3245 10.2885 10.5844 10.2932C10.4776 10.2937 10.4412 10.2693 10.4417 10.1557C10.4469 9.49998 10.4469 8.84373 10.4417 8.188C10.4406 8.0781 10.4714 8.04373 10.5828 8.04529C10.9594 8.05154 11.3359 8.0479 11.7125 8.0479L11.713 8.04737Z" fill="#7BBBFE"/>
<path d="M8.33902 11.0358C8.70881 11.0358 9.07913 11.0416 9.44892 11.0327C9.5734 11.0296 9.5984 11.0692 9.59736 11.1858C9.59215 11.8348 9.59111 12.4843 9.59736 13.1332C9.5984 13.2598 9.55413 13.2811 9.44058 13.2806C8.70725 13.2759 7.9734 13.2749 7.24006 13.2811C7.10725 13.2822 7.07861 13.2395 7.07965 13.115C7.08538 12.4791 7.0859 11.8426 7.07965 11.2067C7.07808 11.0744 7.10777 11.0285 7.2484 11.0322C7.61142 11.0426 7.97548 11.0358 8.33902 11.0358Z" fill="#7BBBFE"/>
<path d="M11.6953 11.036C12.065 11.036 12.4354 11.0406 12.8052 11.0334C12.9234 11.0308 12.9598 11.0604 12.9588 11.1828C12.9525 11.8318 12.9525 12.4813 12.9588 13.1302C12.9598 13.2537 12.9192 13.2813 12.8031 13.2808C12.063 13.2761 11.3229 13.2761 10.5833 13.2808C10.4713 13.2813 10.4416 13.2474 10.4427 13.138C10.4473 12.4823 10.4479 11.8266 10.4427 11.1714C10.4416 11.0568 10.4807 11.0328 10.5864 11.0344C10.9562 11.0401 11.3265 11.0365 11.6963 11.0365L11.6953 11.036Z" fill="#7BBBFE"/>
<path d="M4.97081 16.2615C4.60102 16.2615 4.23071 16.2579 3.86092 16.2636C3.75259 16.2652 3.71665 16.236 3.71717 16.1235C3.72238 15.4745 3.72134 14.8251 3.71769 14.1761C3.71717 14.0751 3.73175 14.0261 3.85259 14.0266C4.60571 14.0318 5.35883 14.0313 6.11144 14.0266C6.21509 14.0261 6.24009 14.0573 6.23956 14.1573C6.2354 14.8131 6.23488 15.4688 6.23956 16.1245C6.24061 16.235 6.20936 16.2657 6.09998 16.2636C5.72342 16.2568 5.34686 16.261 4.97029 16.261L4.97081 16.2615Z" fill="#7BBBFE"/>
<path d="M15.0589 16.2614C14.6823 16.2614 14.3057 16.2578 13.9292 16.2641C13.8276 16.2656 13.7979 16.2385 13.799 16.1354C13.8037 15.4729 13.8031 14.8109 13.799 14.1484C13.799 14.0568 13.8219 14.0271 13.9172 14.0276C14.6771 14.0312 15.4365 14.0318 16.1964 14.0276C16.3068 14.0271 16.3219 14.0724 16.3214 14.1661C16.3182 14.8219 16.3177 15.4776 16.3219 16.1333C16.3224 16.238 16.288 16.2646 16.188 16.2635C15.8115 16.2583 15.4349 16.2614 15.0584 16.2614H15.0589Z" fill="#7BBBFE"/>
<path d="M8.33484 16.2615C7.97129 16.2615 7.60827 16.2573 7.24525 16.2641C7.1265 16.2662 7.07807 16.2453 7.07963 16.1094C7.08744 15.4672 7.08744 14.825 7.07963 14.1828C7.07807 14.0479 7.12494 14.0266 7.24473 14.0276C7.97754 14.0323 8.71088 14.0323 9.44369 14.0276C9.55619 14.0271 9.59994 14.0453 9.59838 14.1729C9.59109 14.8214 9.59109 15.4703 9.59838 16.1193C9.59994 16.2464 9.55775 16.2672 9.44421 16.2651C9.07442 16.2584 8.70463 16.2625 8.33484 16.2625V16.2615Z" fill="#7BBBFE"/>
<path d="M11.676 16.2615C11.3192 16.2615 10.9625 16.2573 10.6057 16.2641C10.4869 16.2662 10.439 16.2459 10.4406 16.1099C10.4489 15.4677 10.4484 14.8255 10.4406 14.1834C10.439 14.05 10.4828 14.0266 10.6036 14.0271C11.3364 14.0323 12.0698 14.0318 12.8026 14.0271C12.9135 14.0266 12.9599 14.0422 12.9583 14.1719C12.951 14.8203 12.951 15.4693 12.9583 16.1177C12.9599 16.2448 12.9177 16.2657 12.8036 16.2641C12.4276 16.2573 12.051 16.2615 11.675 16.2615H11.676Z" fill="#7BBBFE"/>
</svg>
