<svg width="25" height="26" viewBox="0 0 25 26" fill="none" xmlns="http://www.w3.org/2000/svg">
<g clip-path="url(#clip0_224_6188)">
<path d="M14.3274 0.479248C14.7632 0.658691 14.9207 0.980957 14.9188 1.45215C14.9066 4.68396 14.9139 7.91577 14.9078 11.1476C14.9078 11.3441 14.9445 11.4039 15.1532 11.4009C16.0626 11.3875 16.972 11.4039 17.8815 11.3911C18.2672 11.3856 18.5767 11.4973 18.7415 11.8556C18.9081 12.2169 18.7714 12.5245 18.5229 12.8083C16.8793 14.6815 15.2393 16.5577 13.598 18.4333C13.4644 18.5859 13.3337 18.7416 13.1958 18.8905C12.8119 19.3037 12.3285 19.3098 11.9525 18.8899C11.3141 18.1758 10.6879 17.4513 10.0568 16.7305C8.95019 15.4658 7.84363 14.2012 6.73767 12.9365C6.62597 12.8083 6.50635 12.6863 6.42578 12.5337C6.15234 12.0161 6.51916 11.4039 7.11914 11.399C8.08533 11.3905 9.05212 11.3905 10.0183 11.4021C10.2075 11.4045 10.2393 11.349 10.2386 11.1738C10.2332 7.93408 10.2405 4.69373 10.2283 1.45398C10.2264 0.982788 10.3839 0.660522 10.8197 0.481079H14.3286L14.3274 0.479248Z" fill="#FEFEFE"/>
<path d="M12.5739 25.4305C9.24439 25.4305 5.91431 25.414 2.58484 25.4403C1.59729 25.4482 0.850831 24.7097 0.86731 23.7246C0.900269 21.7678 0.879517 19.8104 0.872193 17.853C0.871583 17.6723 0.912476 17.6253 1.09619 17.6278C1.99768 17.6388 2.89917 17.6369 3.80066 17.629C3.95935 17.6278 4.00085 17.6693 3.99963 17.828C3.99292 19.2489 3.99963 20.6704 3.99109 22.0913C3.98987 22.2738 4.03442 22.3153 4.2157 22.3153C9.78699 22.3098 15.3577 22.3098 20.929 22.3153C21.1084 22.3153 21.156 22.2774 21.1548 22.0925C21.1456 20.6795 21.1536 19.2666 21.1456 17.8536C21.1444 17.6735 21.1847 17.6253 21.369 17.6278C22.2705 17.6388 23.172 17.6369 24.0735 17.629C24.2316 17.6278 24.2737 17.6674 24.2731 17.8274C24.2676 19.825 24.2712 21.8227 24.2682 23.8204C24.267 24.7603 23.6005 25.4281 22.6605 25.4287C19.2987 25.4311 15.9363 25.4293 12.5745 25.4293L12.5739 25.4305Z" fill="#FEFEFE"/>
</g>
<defs>
<clipPath id="clip0_224_6188">
<rect width="25" height="25.0104" fill="white" transform="translate(0 0.43042)"/>
</clipPath>
</defs>
</svg>
