<svg width="30" height="31" viewBox="0 0 30 31" fill="none" xmlns="http://www.w3.org/2000/svg">
<g clip-path="url(#clip0_224_6285)">
<path d="M30 16.0867V26.6512C29.8846 26.7026 29.9267 26.8219 29.9064 26.9046C29.3715 29.1385 27.5766 30.5607 25.278 30.5615C18.4234 30.5615 11.568 30.5638 4.71345 30.5607C2.1848 30.5592 0.11852 28.4921 0.117741 25.9681C0.115401 19.0746 0.116181 12.181 0.117741 5.28665C0.117741 3.18139 1.56959 1.32096 3.60312 0.808681C3.74659 0.772814 3.9041 0.782171 4.02729 0.678467C7.52905 0.678467 11.0308 0.678467 14.5333 0.678467C14.552 0.696401 14.5684 0.72759 14.5895 0.731488C16.1965 0.995816 17.2179 2.59816 16.7758 4.16385C16.4226 5.41531 15.37 6.18022 13.9805 6.18256C11.2866 6.18646 8.59181 6.18568 5.89786 6.17944C5.68811 6.17944 5.6156 6.21999 5.61638 6.44767C5.62339 12.5654 5.62261 18.6831 5.61716 24.8017C5.61716 25.006 5.67252 25.0621 5.8768 25.0613C11.9945 25.0559 18.1123 25.0559 24.2308 25.0621C24.4593 25.0621 24.5014 24.9904 24.4998 24.7806C24.4904 23.4972 24.4936 22.213 24.4951 20.9288C24.4975 19.4215 24.4741 17.9128 24.5138 16.4063C24.5497 15.0707 25.614 13.9611 26.9138 13.8176C28.2791 13.6672 29.515 14.4929 29.901 15.8028C29.9283 15.8964 29.8908 16.0204 30 16.0867Z" fill="#FEFEFE"/>
<path d="M30 9.2578C29.8963 9.29991 29.9236 9.40751 29.8994 9.48159C29.5415 10.6091 28.7751 11.2851 27.6164 11.4598C26.4655 11.6329 25.4043 11.0683 24.8296 10.0547C24.7961 9.99621 24.7626 9.93695 24.6846 9.79972C24.6074 9.91278 24.5591 10.0126 24.485 10.0867C20.4632 14.1124 16.4398 18.1366 12.4148 22.1592C11.3996 23.1736 10.032 23.3514 8.88578 22.627C7.45576 21.7233 7.18207 19.7233 8.31813 18.4742C8.41638 18.3666 8.51852 18.2621 8.62145 18.1592C12.6105 14.1693 16.5996 10.1802 20.591 6.1927C20.6651 6.11862 20.7649 6.07028 20.885 5.98763C20.1248 5.60478 19.6257 5.09874 19.3591 4.37983C18.8062 2.88977 19.6413 1.23519 21.1673 0.786069C21.2522 0.761118 21.3661 0.782171 21.4199 0.678467C23.5018 0.678467 25.5836 0.678467 27.6647 0.678467C27.6834 0.696401 27.6998 0.72759 27.7201 0.730709C28.7532 0.901469 29.4261 1.50888 29.8261 2.45469C29.8955 2.61843 29.8877 2.80634 29.9992 2.95371V9.2578H30Z" fill="#FEFEFE"/>
</g>
<defs>
<clipPath id="clip0_224_6285">
<rect width="30" height="29.9423" fill="white" transform="translate(0 0.619873)"/>
</clipPath>
</defs>
</svg>
