<svg width="30" height="31" viewBox="0 0 30 31" fill="none" xmlns="http://www.w3.org/2000/svg">
<g clip-path="url(#clip0_224_6191)">
<path d="M30 16.3149C29.8099 16.8713 29.4022 17.2774 29.0318 17.7055C27.1304 19.9001 25.0016 21.8331 22.4984 23.3268C20.6002 24.4598 18.5786 25.2696 16.3661 25.5198C14.3218 25.7505 12.3481 25.4256 10.4313 24.6938C8.12784 23.8141 6.11355 22.4724 4.25114 20.8796C2.88743 19.7133 1.66098 18.4145 0.51982 17.0329C-0.0251772 16.3734 -0.0259894 15.558 0.51251 14.9033C2.27502 12.7599 4.24789 10.8398 6.55215 9.28035C8.60218 7.89227 10.8049 6.85426 13.2765 6.47414C15.415 6.14519 17.4886 6.42541 19.5102 7.16859C21.8811 8.04091 23.9482 9.40868 25.8561 11.0388C27.2279 12.2108 28.4576 13.5201 29.6101 14.9041C29.8002 15.1324 29.8895 15.4061 30.0008 15.6725V16.3141L30 16.3149ZM15.0609 22.9166C18.9076 22.915 22.0167 19.7994 22.0102 15.9551C22.0029 12.119 18.9076 9.02206 15.0707 9.01313C11.2264 9.00419 8.10998 12.1134 8.10673 15.96C8.10348 19.8059 11.2151 22.9183 15.0609 22.9166Z" fill="#FEFEFE"/>
<path d="M15.056 20.783C12.4082 20.7782 10.2355 18.603 10.2404 15.9633C10.2453 13.3155 12.4204 11.1428 15.0601 11.1477C17.7079 11.1526 19.8806 13.3277 19.8757 15.9674C19.8709 18.6152 17.6957 20.7879 15.056 20.783ZM12.803 15.6214C13.0068 15.6214 13.2107 15.6157 13.4137 15.6238C13.5388 15.6287 13.5851 15.6043 13.6127 15.4598C13.7053 14.9806 13.9945 14.6589 14.4842 14.568C14.6646 14.5347 14.697 14.4583 14.693 14.2991C14.6832 13.9312 14.6808 13.5616 14.693 13.1937C14.6995 13.0142 14.6524 12.9687 14.4664 12.9776C13.3577 13.0304 12.2555 14.014 12.076 15.1284C12.023 15.4576 12.1678 15.6222 12.5106 15.6222C12.6072 15.6222 12.7047 15.6222 12.8013 15.6222L12.803 15.6214Z" fill="#FEFEFE"/>
</g>
<defs>
<clipPath id="clip0_224_6191">
<rect width="30" height="29.9415" fill="white" transform="translate(0 0.964844)"/>
</clipPath>
</defs>
</svg>
